<svg width="644" height="455" viewBox="0 0 644 455" fill="none" xmlns="http://www.w3.org/2000/svg">
<path d="M0 388.713H644" stroke="#1E293B" stroke-opacity="0.4" stroke-width="2" stroke-dasharray="8 8"/>
<path d="M0 358.713H644" stroke="#1E293B" stroke-opacity="0.4" stroke-width="2" stroke-dasharray="8 8"/>
<path d="M0 60.7134H644" stroke="#1E293B" stroke-opacity="0.4" stroke-width="2" stroke-dasharray="8 8"/>
<path d="M0 90.7134H644" stroke="#1E293B" stroke-opacity="0.4" stroke-width="2" stroke-dasharray="8 8"/>
<path d="M50 0.713379L366 450.713" stroke="#1E293B" stroke-opacity="0.4" stroke-width="2" stroke-dasharray="8 8"/>
<path d="M85 0.713379L402 449.713" stroke="#1E293B" stroke-opacity="0.4" stroke-width="2" stroke-dasharray="8 8"/>
<path d="M132 0.713379L132 454.713" stroke="#1E293B" stroke-opacity="0.4" stroke-width="2" stroke-dasharray="8 8"/>
<path d="M104 0.713379L104 454.713" stroke="#1E293B" stroke-opacity="0.4" stroke-width="2" stroke-dasharray="8 8"/>
<path d="M377 90.7135C375.643 90.7135 374.291 90.7337 372.943 90.7737L372.973 91.7733C370.28 91.8534 367.606 92.0136 364.955 92.2515L364.866 91.2555C362.165 91.498 359.486 91.8207 356.833 92.2211L356.983 93.2099C354.32 93.6118 351.683 94.0926 349.075 94.65L348.866 93.672C346.215 94.2385 343.593 94.8833 341.003 95.6041L341.271 96.5675C338.681 97.288 336.123 98.0849 333.599 98.9557L333.273 98.0103C330.715 98.8931 328.192 99.8512 325.706 100.882L326.089 101.806C323.609 102.834 321.166 103.936 318.765 105.107L318.326 104.208C315.895 105.394 313.506 106.651 311.16 107.977L311.652 108.848C309.317 110.168 307.025 111.556 304.78 113.011L304.236 112.172C301.969 113.64 299.749 115.176 297.579 116.775L298.172 117.58C296.014 119.171 293.906 120.825 291.851 122.54L291.21 121.772C289.137 123.502 287.117 125.293 285.153 127.142L285.838 127.87C283.888 129.707 281.993 131.601 280.157 133.552L279.429 132.866C277.579 134.83 275.788 136.85 274.058 138.923L274.826 139.564C273.111 141.62 271.457 143.728 269.867 145.886L269.062 145.292C267.463 147.462 265.927 149.683 264.458 151.95L265.297 152.494C263.843 154.739 262.454 157.03 261.134 159.366L260.264 158.874C258.938 161.219 257.681 163.609 256.495 166.04L257.394 166.478C256.222 168.88 255.121 171.322 254.092 173.803L253.168 173.42C252.138 175.905 251.18 178.428 250.297 180.987L251.242 181.313C250.371 183.837 249.574 186.394 248.854 188.984L247.891 188.716C247.17 191.307 246.525 193.929 245.959 196.58L246.936 196.789C246.379 199.397 245.898 202.034 245.496 204.696L244.508 204.547C244.107 207.2 243.785 209.878 243.542 212.579L244.538 212.669C244.3 215.32 244.14 217.993 244.06 220.686L243.06 220.657C243.02 222.004 243 223.356 243 224.713C243 226.07 243.02 227.423 243.06 228.77L244.06 228.74C244.14 231.434 244.3 234.107 244.538 236.758L243.542 236.847C243.785 239.549 244.107 242.227 244.508 244.88L245.496 244.731C245.898 247.393 246.379 250.03 246.936 252.638L245.959 252.847C246.525 255.498 247.17 258.12 247.891 260.711L248.854 260.443C249.574 263.032 250.371 265.59 251.242 268.114L250.297 268.44C251.18 270.998 252.138 273.522 253.168 276.007L254.092 275.624C255.121 278.104 256.222 280.547 257.394 282.949L256.495 283.387C257.681 285.818 258.938 288.208 260.264 290.553L261.134 290.061C262.454 292.397 263.843 294.688 265.297 296.933L264.458 297.477C265.927 299.744 267.463 301.964 269.062 304.135L269.867 303.541C271.457 305.699 273.111 307.807 274.826 309.863L274.058 310.503C275.788 312.577 277.579 314.597 279.429 316.561L280.157 315.875C281.993 317.825 283.888 319.72 285.838 321.557L285.153 322.285C287.117 324.134 289.137 325.925 291.21 327.655L291.851 326.887C293.906 328.602 296.014 330.256 298.172 331.846L297.579 332.651C299.749 334.251 301.969 335.786 304.236 337.255L304.78 336.416C307.025 337.871 309.317 339.259 311.652 340.579L311.16 341.45C313.506 342.776 315.895 344.033 318.326 345.218L318.765 344.32C321.167 345.491 323.609 346.593 326.089 347.621L325.706 348.545C328.192 349.576 330.715 350.534 333.273 351.417L333.6 350.471C336.123 351.342 338.681 352.139 341.271 352.859L341.003 353.823C343.593 354.544 346.215 355.188 348.866 355.755L349.075 354.777C351.683 355.334 354.32 355.815 356.983 356.217L356.833 357.206C359.486 357.606 362.165 357.929 364.866 358.171L364.955 357.175C367.606 357.413 370.28 357.573 372.973 357.654L372.943 358.653C374.291 358.693 375.643 358.713 377 358.713C378.357 358.713 379.709 358.693 381.057 358.653L381.027 357.654C383.72 357.573 386.394 357.413 389.045 357.175L389.134 358.171C391.835 357.929 394.514 357.606 397.167 357.206L397.017 356.217C399.68 355.815 402.316 355.334 404.925 354.777L405.134 355.755C407.785 355.188 410.407 354.544 412.997 353.823L412.729 352.859C415.319 352.139 417.877 351.342 420.4 350.471L420.727 351.417C423.285 350.534 425.808 349.576 428.294 348.545L427.911 347.621C430.391 346.593 432.833 345.491 435.235 344.32L435.674 345.218C438.105 344.033 440.494 342.776 442.84 341.45L442.348 340.579C444.683 339.259 446.975 337.871 449.22 336.416L449.764 337.255C452.031 335.786 454.251 334.251 456.421 332.651L455.828 331.846C457.986 330.256 460.094 328.602 462.149 326.887L462.79 327.655C464.863 325.925 466.883 324.134 468.847 322.285L468.162 321.557C470.112 319.72 472.007 317.825 473.843 315.875L474.571 316.561C476.421 314.597 478.212 312.577 479.941 310.503L479.174 309.863C480.889 307.807 482.543 305.699 484.133 303.541L484.938 304.135C486.537 301.964 488.073 299.744 489.542 297.477L488.703 296.933C490.157 294.688 491.546 292.397 492.866 290.061L493.736 290.553C495.062 288.208 496.319 285.818 497.505 283.387L496.606 282.949C497.778 280.547 498.879 278.104 499.908 275.624L500.832 276.007C501.862 273.522 502.82 270.998 503.703 268.44L502.758 268.114C503.629 265.59 504.425 263.032 505.146 260.443L506.109 260.711C506.83 258.12 507.475 255.498 508.041 252.847L507.063 252.638C507.621 250.03 508.102 247.393 508.504 244.731L509.492 244.88C509.893 242.227 510.215 239.549 510.458 236.847L509.462 236.758C509.7 234.107 509.86 231.434 509.94 228.74L510.94 228.77C510.98 227.423 511 226.07 511 224.713C511 223.356 510.98 222.004 510.94 220.657L509.94 220.687C509.86 217.993 509.7 215.32 509.462 212.669L510.458 212.579C510.215 209.878 509.893 207.2 509.492 204.547L508.504 204.696C508.102 202.034 507.621 199.397 507.063 196.789L508.041 196.58C507.475 193.929 506.83 191.307 506.109 188.716L505.146 188.984C504.425 186.394 503.629 183.837 502.758 181.313L503.703 180.987C502.82 178.428 501.862 175.905 500.832 173.42L499.908 173.803C498.879 171.322 497.778 168.88 496.606 166.478L497.505 166.04C496.319 163.609 495.062 161.219 493.736 158.874L492.866 159.366C491.546 157.03 490.157 154.739 488.703 152.494L489.542 151.95C488.073 149.682 486.537 147.462 484.938 145.292L484.133 145.886C482.543 143.728 480.888 141.62 479.174 139.564L479.941 138.923C478.212 136.85 476.421 134.83 474.571 132.866L473.843 133.552C472.007 131.601 470.112 129.707 468.162 127.87L468.847 127.142C466.883 125.293 464.863 123.502 462.79 121.772L462.149 122.54C460.094 120.825 457.986 119.171 455.828 117.58L456.421 116.775C454.251 115.176 452.031 113.64 449.764 112.172L449.22 113.011C446.975 111.556 444.683 110.168 442.348 108.848L442.84 107.977C440.494 106.651 438.105 105.394 435.674 104.208L435.235 105.107C432.833 103.936 430.391 102.834 427.911 101.806L428.294 100.882C425.808 99.8512 423.285 98.8931 420.727 98.0103L420.4 98.9556C417.877 98.0849 415.319 97.288 412.729 96.5675L412.997 95.6041C410.407 94.8833 407.785 94.2385 405.134 93.672L404.925 94.65C402.316 94.0926 399.68 93.6118 397.017 93.2099L397.167 92.2211C394.514 91.8207 391.835 91.498 389.134 91.2555L389.045 92.2515C386.394 92.0136 383.72 91.8534 381.027 91.7733L381.057 90.7737C379.709 90.7337 378.357 90.7135 377 90.7135ZM372.938 59.7625C370.225 59.8281 367.528 59.9591 364.849 60.1541L364.922 61.1515C362.233 61.3472 359.562 61.6078 356.91 61.9316L356.789 60.939C354.098 61.2677 351.426 61.6612 348.777 62.1179L348.947 63.1033C346.292 63.5608 343.66 64.0821 341.05 64.6656L340.832 63.6898C338.188 64.281 335.569 64.9356 332.975 65.652L333.241 66.616C330.647 67.3324 328.078 68.111 325.537 68.95L325.224 68.0005C322.653 68.8492 320.111 69.7595 317.598 70.7294L317.958 71.6623C315.449 72.6308 312.97 73.6592 310.523 74.7458L310.117 73.8318C307.645 74.9294 305.204 76.0859 302.798 77.2997L303.248 78.1926C300.848 79.4029 298.482 80.6704 296.152 81.9934L295.658 81.1238C293.307 82.4585 290.992 83.8492 288.715 85.2942L289.251 86.1385C286.983 87.5778 284.752 89.0712 282.561 90.617L281.985 89.7999C279.777 91.3576 277.609 92.9682 275.483 94.6297L276.099 95.4176C273.983 97.071 271.909 98.7751 269.879 100.528L269.225 99.7713C267.181 101.536 265.181 103.351 263.226 105.212L263.915 105.936C261.972 107.787 260.074 109.685 258.223 111.629L257.499 110.939C255.637 112.894 253.823 114.895 252.058 116.939L252.815 117.592C251.062 119.623 249.357 121.697 247.704 123.813L246.916 123.197C245.255 125.323 243.644 127.491 242.086 129.698L242.904 130.275C241.358 132.466 239.864 134.696 238.425 136.964L237.581 136.429C236.136 138.706 234.745 141.021 233.41 143.372L234.28 143.865C232.957 146.196 231.689 148.562 230.479 150.962L229.586 150.511C228.372 152.918 227.216 155.358 226.118 157.83L227.032 158.236C225.946 160.684 224.917 163.163 223.949 165.672L223.016 165.312C222.046 167.824 221.136 170.367 220.287 172.937L221.237 173.251C220.398 175.792 219.619 178.36 218.902 180.954L217.939 180.688C217.222 183.282 216.567 185.902 215.976 188.546L216.952 188.764C216.369 191.373 215.847 194.006 215.39 196.66L214.404 196.49C213.948 199.14 213.554 201.811 213.225 204.502L214.218 204.624C213.894 207.275 213.634 209.946 213.438 212.635L212.441 212.563C212.246 215.242 212.115 217.939 212.049 220.652L213.049 220.676C213.016 222.018 213 223.364 213 224.713C213 226.063 213.016 227.409 213.049 228.751L212.049 228.775C212.115 231.488 212.246 234.185 212.441 236.864L213.438 236.792C213.634 239.481 213.894 242.152 214.218 244.803L213.225 244.924C213.554 247.616 213.948 250.287 214.404 252.937L215.39 252.767C215.847 255.421 216.369 258.054 216.952 260.663L215.976 260.881C216.567 263.525 217.222 266.145 217.939 268.739L218.902 268.473C219.619 271.067 220.398 273.635 221.237 276.176L220.287 276.49C221.136 279.06 222.046 281.602 223.016 284.115L223.949 283.755C224.917 286.264 225.946 288.743 227.032 291.191L226.118 291.596C227.216 294.069 228.372 296.509 229.586 298.916L230.479 298.465C231.689 300.865 232.957 303.231 234.28 305.561L233.41 306.055C234.745 308.406 236.136 310.721 237.581 312.998L238.425 312.462C239.864 314.731 241.358 316.961 242.904 319.152L242.086 319.728C243.644 321.936 245.255 324.104 246.916 326.23L247.704 325.614C249.357 327.73 251.062 329.804 252.815 331.835L252.058 332.488C253.823 334.532 255.637 336.533 257.499 338.488L258.223 337.798C260.074 339.741 261.972 341.64 263.915 343.49L263.226 344.215C265.181 346.076 267.181 347.891 269.225 349.656L269.879 348.899C271.909 350.652 273.983 352.356 276.099 354.009L275.483 354.797C277.609 356.459 279.777 358.069 281.985 359.627L282.561 358.81C284.752 360.356 286.983 361.849 289.251 363.288L288.715 364.133C290.992 365.578 293.307 366.968 295.658 368.303L296.152 367.433C298.482 368.756 300.848 370.024 303.248 371.234L302.798 372.127C305.204 373.341 307.645 374.497 310.117 375.595L310.523 374.681C312.97 375.768 315.449 376.796 317.958 377.765L317.598 378.697C320.111 379.667 322.653 380.578 325.224 381.426L325.537 380.477C328.078 381.316 330.647 382.094 333.241 382.811L332.975 383.775C335.569 384.491 338.188 385.146 340.832 385.737L341.05 384.761C343.659 385.345 346.292 385.866 348.947 386.324L348.777 387.309C351.426 387.766 354.098 388.159 356.789 388.488L356.91 387.495C359.562 387.819 362.233 388.08 364.922 388.275L364.849 389.273C367.528 389.468 370.225 389.599 372.938 389.664L372.962 388.665C374.304 388.697 375.65 388.713 377 388.713C378.35 388.713 379.696 388.697 381.038 388.665L381.062 389.664C383.775 389.599 386.472 389.468 389.151 389.273L389.078 388.275C391.767 388.08 394.438 387.819 397.09 387.495L397.211 388.488C399.902 388.159 402.573 387.766 405.223 387.309L405.053 386.324C407.708 385.866 410.34 385.345 412.95 384.761L413.168 385.737C415.811 385.146 418.431 384.491 421.025 383.775L420.759 382.811C423.353 382.094 425.922 381.316 428.463 380.477L428.776 381.426C431.347 380.578 433.889 379.667 436.402 378.697L436.042 377.765C438.55 376.796 441.03 375.768 443.477 374.681L443.883 375.595C446.355 374.497 448.796 373.341 451.202 372.127L450.752 371.234C453.152 370.024 455.518 368.756 457.848 367.433L458.342 368.303C460.693 366.968 463.008 365.578 465.285 364.133L464.749 363.288C467.017 361.849 469.248 360.356 471.438 358.81L472.015 359.627C474.223 358.069 476.391 356.459 478.517 354.797L477.901 354.009C480.016 352.356 482.09 350.652 484.121 348.899L484.775 349.656C486.819 347.891 488.819 346.076 490.774 344.215L490.084 343.49C492.028 341.64 493.926 339.741 495.777 337.798L496.501 338.488C498.363 336.533 500.177 334.532 501.942 332.488L501.185 331.834C502.938 329.804 504.642 327.73 506.296 325.614L507.084 326.23C508.745 324.104 510.356 321.936 511.913 319.728L511.096 319.152C512.642 316.961 514.136 314.731 515.575 312.462L516.419 312.998C517.864 310.721 519.255 308.406 520.59 306.055L519.72 305.562C521.043 303.231 522.311 300.865 523.521 298.465L524.414 298.916C525.627 296.509 526.784 294.069 527.882 291.596L526.968 291.191C528.054 288.743 529.083 286.264 530.051 283.755L530.984 284.115C531.954 281.602 532.864 279.06 533.713 276.49L532.763 276.176C533.602 273.635 534.381 271.067 535.097 268.473L536.061 268.739C536.778 266.145 537.432 263.525 538.024 260.881L537.048 260.663C537.631 258.054 538.153 255.421 538.61 252.767L539.596 252.937C540.052 250.287 540.446 247.616 540.774 244.924L539.782 244.803C540.106 242.152 540.366 239.481 540.562 236.792L541.559 236.864C541.754 234.185 541.885 231.488 541.951 228.775L540.951 228.751C540.984 227.409 541 226.063 541 224.713C541 223.364 540.984 222.018 540.951 220.676L541.951 220.652C541.885 217.939 541.754 215.242 541.559 212.563L540.562 212.635C540.366 209.946 540.106 207.275 539.782 204.624L540.774 204.502C540.446 201.811 540.052 199.14 539.596 196.49L538.61 196.66C538.153 194.006 537.631 191.373 537.048 188.764L538.024 188.546C537.432 185.902 536.778 183.282 536.061 180.688L535.097 180.954C534.381 178.36 533.602 175.792 532.763 173.251L533.713 172.937C532.864 170.367 531.954 167.824 530.984 165.312L530.051 165.672C529.083 163.163 528.054 160.684 526.968 158.236L527.882 157.83C526.784 155.358 525.627 152.918 524.414 150.511L523.521 150.962C522.311 148.562 521.043 146.196 519.72 143.865L520.59 143.372C519.255 141.021 517.864 138.706 516.419 136.429L515.575 136.964C514.136 134.696 512.642 132.466 511.096 130.275L511.913 129.698C510.356 127.491 508.745 125.323 507.084 123.197L506.296 123.813C504.642 121.697 502.938 119.623 501.185 117.592L501.942 116.939C500.177 114.895 498.363 112.894 496.501 110.939L495.777 111.629C493.926 109.685 492.028 107.787 490.084 105.936L490.774 105.212C488.819 103.351 486.819 101.536 484.775 99.7714L484.121 100.528C482.09 98.7751 480.016 97.071 477.901 95.4176L478.517 94.6297C476.391 92.9682 474.223 91.3577 472.015 89.7999L471.438 90.617C469.248 89.0712 467.017 87.5778 464.749 86.1385L465.285 85.2941C463.008 83.8492 460.693 82.4585 458.342 81.1238L457.848 81.9935C455.518 80.6705 453.152 79.4029 450.752 78.1926L451.202 77.2997C448.796 76.086 446.355 74.9294 443.883 73.8319L443.477 74.7458C441.03 73.6593 438.551 72.6308 436.042 71.6623L436.402 70.7294C433.889 69.7595 431.347 68.8492 428.776 68.0005L428.463 68.9501C425.922 68.111 423.353 67.3324 420.759 66.616L421.025 65.6521C418.431 64.9357 415.812 64.281 413.168 63.6898L412.95 64.6657C410.34 64.0822 407.708 63.5608 405.053 63.1033L405.223 62.1179C402.574 61.6612 399.902 61.2677 397.211 60.939L397.09 61.9316C394.438 61.6077 391.767 61.3472 389.078 61.1515L389.151 60.1541C386.472 59.9591 383.775 59.8281 381.062 59.7625L381.038 60.7622C379.696 60.7298 378.35 60.7135 377 60.7135C375.65 60.7135 374.304 60.7298 372.962 60.7622L372.938 59.7625Z" stroke="#1E293B" stroke-width="2" stroke-dasharray="8 8"/>
<path d="M330.286 189.356C330.286 188.058 330.261 186.765 330.211 185.478L329.212 185.517C329.112 182.942 328.913 180.393 328.617 177.872L329.611 177.756C329.308 175.174 328.906 172.623 328.408 170.106L327.427 170.3C326.928 167.777 326.332 165.29 325.643 162.841L326.605 162.57C325.902 160.073 325.104 157.617 324.213 155.205L323.275 155.551C322.387 153.143 321.406 150.781 320.338 148.467L321.245 148.047C320.16 145.696 318.984 143.395 317.723 141.148L316.851 141.638C315.598 139.404 314.259 137.225 312.839 135.104L313.67 134.548C312.231 132.399 310.711 130.31 309.112 128.285L308.327 128.904C306.742 126.896 305.08 124.952 303.345 123.076L304.079 122.397C302.325 120.501 300.498 118.674 298.602 116.92L297.923 117.654C296.047 115.919 294.103 114.257 292.095 112.672L292.714 111.887C290.689 110.288 288.6 108.768 286.451 107.329L285.895 108.16C283.774 106.74 281.595 105.401 279.361 104.148L279.851 103.276C277.604 102.015 275.303 100.839 272.952 99.7536L272.532 100.661C270.219 99.5929 267.856 98.6122 265.448 97.7237L265.794 96.7856C263.382 95.8954 260.926 95.0967 258.429 94.3939L258.158 95.3565C255.709 94.6672 253.222 94.071 250.699 93.5719L250.893 92.5909C248.376 92.093 245.825 91.6908 243.243 91.3883L243.127 92.3816C240.606 92.0863 238.057 91.887 235.482 91.7875L235.521 90.7882C234.234 90.7385 232.941 90.7134 231.643 90.7134C230.344 90.7134 229.052 90.7385 227.765 90.7882L227.804 91.7875C225.229 91.887 222.679 92.0863 220.159 92.3816L220.043 91.3883C217.461 91.6908 214.91 92.093 212.393 92.5909L212.587 93.5719C210.064 94.071 207.576 94.6672 205.128 95.3565L204.857 94.3939C202.36 95.0967 199.904 95.8954 197.491 96.7856L197.838 97.7237C195.43 98.6122 193.067 99.5929 190.753 100.661L190.334 99.7536C187.983 100.839 185.682 102.015 183.435 103.276L183.924 104.148C181.691 105.401 179.512 106.74 177.391 108.16L176.835 107.329C174.686 108.768 172.596 110.288 170.571 111.887L171.191 112.672C169.183 114.257 167.239 115.919 165.363 117.654L164.684 116.92C162.788 118.674 160.96 120.501 159.207 122.397L159.941 123.076C158.206 124.952 156.544 126.896 154.959 128.904L154.174 128.285C152.575 130.31 151.054 132.399 149.615 134.548L150.446 135.104C149.027 137.225 147.688 139.404 146.434 141.638L145.562 141.148C144.301 143.395 143.126 145.696 142.04 148.047L142.948 148.467C141.88 150.781 140.899 153.143 140.01 155.551L139.072 155.205C138.182 157.617 137.383 160.073 136.681 162.57L137.643 162.841C136.954 165.29 136.358 167.777 135.859 170.3L134.878 170.106C134.38 172.623 133.977 175.174 133.675 177.756L134.668 177.872C134.373 180.393 134.174 182.942 134.074 185.517L133.075 185.478C133.025 186.765 133 188.058 133 189.356C133 190.655 133.025 191.947 133.075 193.234L134.074 193.195C134.174 195.77 134.373 198.32 134.668 200.84L133.675 200.956C133.977 203.538 134.38 206.089 134.878 208.606L135.859 208.412C136.358 210.935 136.954 213.423 137.643 215.871L136.681 216.142C137.383 218.639 138.182 221.095 139.072 223.508L140.01 223.161C140.899 225.569 141.88 227.932 142.948 230.246L142.04 230.665C143.126 233.016 144.301 235.317 145.562 237.564L146.434 237.075C147.688 239.308 149.027 241.488 150.446 243.608L149.615 244.164C151.054 246.313 152.575 248.403 154.174 250.428L154.959 249.808C156.544 251.816 158.206 253.76 159.941 255.636L159.207 256.315C160.96 258.211 162.788 260.039 164.684 261.792L165.363 261.058C167.239 262.793 169.183 264.455 171.191 266.04L170.571 266.825C172.596 268.424 174.686 269.945 176.835 271.384L177.391 270.553C179.512 271.972 181.691 273.311 183.924 274.565L183.435 275.437C185.682 276.698 187.983 277.873 190.334 278.959L190.753 278.051C193.067 279.119 195.43 280.1 197.838 280.989L197.491 281.927C199.904 282.817 202.36 283.616 204.857 284.318L205.128 283.356C207.576 284.045 210.064 284.641 212.587 285.14L212.393 286.121C214.91 286.619 217.461 287.022 220.043 287.324L220.159 286.331C222.679 286.626 225.229 286.825 227.804 286.925L227.765 287.924C229.052 287.974 230.344 287.999 231.643 287.999C232.941 287.999 234.234 287.974 235.521 287.924L235.482 286.925C238.057 286.825 240.606 286.626 243.127 286.331L243.243 287.324C245.825 287.022 248.376 286.619 250.893 286.121L250.699 285.14C253.222 284.641 255.709 284.045 258.158 283.356L258.429 284.318C260.926 283.616 263.382 282.817 265.794 281.927L265.448 280.989C267.856 280.1 270.218 279.12 272.532 278.051L272.952 278.959C275.303 277.873 277.604 276.698 279.851 275.437L279.361 274.565C281.595 273.311 283.774 271.972 285.895 270.553L286.451 271.384C288.6 269.945 290.689 268.424 292.714 266.825L292.095 266.04C294.103 264.455 296.047 262.793 297.923 261.058L298.602 261.792C300.498 260.039 302.325 258.211 304.079 256.315L303.345 255.636C305.08 253.76 306.742 251.816 308.327 249.808L309.112 250.428C310.711 248.403 312.231 246.313 313.67 244.164L312.839 243.608C314.259 241.488 315.598 239.308 316.851 237.075L317.723 237.564C318.984 235.317 320.16 233.016 321.245 230.665L320.338 230.246C321.406 227.932 322.387 225.569 323.275 223.161L324.213 223.508C325.104 221.095 325.902 218.639 326.605 216.142L325.643 215.871C326.332 213.423 326.928 210.935 327.427 208.412L328.408 208.606C328.906 206.089 329.308 203.538 329.611 200.956L328.617 200.84C328.913 198.32 329.112 195.77 329.212 193.195L330.211 193.234C330.261 191.947 330.286 190.655 330.286 189.356ZM361.227 185.431C361.149 182.805 360.993 180.2 360.761 177.616L359.765 177.705C359.532 175.111 359.223 172.54 358.838 169.993L359.827 169.844C359.435 167.249 358.967 164.679 358.423 162.136L357.445 162.345C356.902 159.8 356.283 157.283 355.591 154.797L356.554 154.529C355.852 152.004 355.075 149.511 354.226 147.051L353.281 147.377C352.434 144.922 351.514 142.499 350.525 140.114L351.448 139.731C350.446 137.313 349.372 134.932 348.23 132.591L347.331 133.029C346.193 130.696 344.986 128.402 343.713 126.15L344.584 125.658C343.297 123.381 341.944 121.148 340.526 118.959L339.687 119.503C338.276 117.326 336.802 115.195 335.267 113.111L336.072 112.518C334.521 110.415 332.909 108.36 331.237 106.356L330.47 106.997C328.809 105.006 327.089 103.067 325.314 101.181L326.042 100.495C324.251 98.5945 322.405 96.7476 320.504 94.9574L319.818 95.6854C317.932 93.9096 315.993 92.19 314.002 90.5295L314.643 89.7616C312.639 88.09 310.584 86.4777 308.481 84.9274L307.888 85.7324C305.804 84.1968 303.673 82.7226 301.496 81.3124L302.04 80.4731C299.851 79.0554 297.618 77.7018 295.341 76.4151L294.849 77.2856C292.597 76.0129 290.303 74.806 287.97 73.6678L288.408 72.769C286.067 71.6269 283.686 70.5533 281.268 69.5507L280.885 70.4745C278.5 69.4851 276.077 68.5654 273.622 67.718L273.948 66.7727C271.488 65.924 268.995 65.1471 266.47 64.4448L266.202 65.4082C263.716 64.7164 261.199 64.0974 258.654 63.5536L258.863 62.5757C256.32 62.0325 253.75 61.5638 251.155 61.172L251.006 62.1608C248.459 61.7764 245.887 61.4666 243.294 61.2338L243.383 60.2378C240.799 60.0059 238.193 59.8497 235.568 59.7717L235.538 60.7712C234.245 60.7328 232.946 60.7134 231.643 60.7134C230.34 60.7134 229.041 60.7328 227.747 60.7712L227.718 59.7717C225.092 59.8497 222.486 60.0059 219.902 60.2378L219.992 61.2338C217.398 61.4666 214.827 61.7764 212.28 62.1608L212.131 61.172C209.535 61.5638 206.965 62.0325 204.423 62.5757L204.632 63.5536C202.087 64.0974 199.57 64.7164 197.083 65.4082L196.815 64.4448C194.291 65.1472 191.798 65.924 189.338 66.7727L189.664 67.718C187.208 68.5654 184.786 69.4851 182.4 70.4745L182.017 69.5507C179.599 70.5533 177.219 71.6269 174.877 72.769L175.316 73.6678C172.982 74.8061 170.688 76.0129 168.437 77.2856L167.945 76.4151C165.668 77.7018 163.434 79.0554 161.246 80.4731L161.79 81.3124C159.613 82.7226 157.481 84.1968 155.398 85.7324L154.805 84.9274C152.701 86.4777 150.646 88.09 148.643 89.7616L149.283 90.5295C147.293 92.19 145.353 93.9096 143.468 95.6855L142.782 94.9575C140.881 96.7476 139.034 98.5945 137.244 100.495L137.972 101.181C136.196 103.067 134.477 105.006 132.816 106.997L132.048 106.356C130.377 108.36 128.764 110.415 127.214 112.518L128.019 113.111C126.483 115.195 125.009 117.326 123.599 119.503L122.76 118.959C121.342 121.148 119.988 123.381 118.702 125.658L119.572 126.15C118.299 128.402 117.093 130.696 115.954 133.029L115.056 132.591C113.914 134.932 112.84 137.313 111.837 139.731L112.761 140.114C111.772 142.5 110.852 144.922 110.005 147.377L109.059 147.051C108.211 149.511 107.434 152.004 106.731 154.529L107.695 154.797C107.003 157.283 106.384 159.8 105.84 162.345L104.862 162.136C104.319 164.679 103.85 167.249 103.459 169.844L104.447 169.993C104.063 172.54 103.753 175.112 103.52 177.705L102.524 177.616C102.292 180.2 102.136 182.806 102.058 185.431L103.058 185.461C103.019 186.754 103 188.053 103 189.356C103 190.659 103.019 191.958 103.058 193.252L102.058 193.281C102.136 195.907 102.292 198.513 102.524 201.097L103.52 201.007C103.753 203.601 104.063 206.172 104.447 208.719L103.459 208.868C103.85 211.464 104.319 214.034 104.862 216.576L105.84 216.367C106.384 218.912 107.003 221.429 107.695 223.916L106.731 224.184C107.434 226.708 108.211 229.201 109.059 231.661L110.005 231.335C110.852 233.791 111.772 236.213 112.761 238.599L111.837 238.982C112.84 241.4 113.914 243.78 115.056 246.122L115.954 245.683C117.093 248.017 118.3 250.311 119.572 252.562L118.702 253.055C119.988 255.331 121.342 257.565 122.76 259.753L123.599 259.209C125.009 261.386 126.483 263.518 128.019 265.601L127.214 266.194C128.764 268.298 130.377 270.353 132.048 272.356L132.816 271.716C134.477 273.706 136.196 275.646 137.972 277.531L137.244 278.217C139.034 280.118 140.881 281.965 142.782 283.755L143.468 283.027C145.354 284.803 147.293 286.522 149.283 288.183L148.643 288.951C150.646 290.622 152.701 292.235 154.805 293.785L155.398 292.98C157.481 294.516 159.613 295.99 161.79 297.4L161.246 298.239C163.434 299.657 165.668 301.011 167.945 302.297L168.437 301.427C170.688 302.7 172.982 303.906 175.316 305.045L174.877 305.943C177.219 307.085 179.599 308.159 182.017 309.162L182.4 308.238C184.786 309.227 187.208 310.147 189.664 310.994L189.338 311.94C191.798 312.788 194.291 313.565 196.815 314.268L197.084 313.304C199.57 313.996 202.087 314.615 204.632 315.159L204.423 316.137C206.965 316.68 209.535 317.149 212.131 317.54L212.28 316.552C214.827 316.936 217.398 317.246 219.992 317.479L219.902 318.475C222.486 318.707 225.092 318.863 227.718 318.941L227.747 317.941C229.041 317.98 230.34 317.999 231.643 317.999C232.946 317.999 234.245 317.98 235.538 317.941L235.568 318.941C238.194 318.863 240.799 318.707 243.383 318.475L243.294 317.479C245.888 317.246 248.459 316.936 251.006 316.552L251.155 317.54C253.75 317.149 256.32 316.68 258.863 316.137L258.654 315.159C261.199 314.615 263.716 313.996 266.202 313.304L266.47 314.268C268.995 313.565 271.488 312.788 273.948 311.94L273.622 310.994C276.077 310.147 278.5 309.227 280.885 308.238L281.269 309.162C283.686 308.159 286.067 307.085 288.408 305.943L287.97 305.045C290.303 303.906 292.597 302.7 294.849 301.427L295.341 302.297C297.618 301.011 299.851 299.657 302.04 298.239L301.496 297.4C303.673 295.99 305.804 294.516 307.888 292.98L308.481 293.785C310.584 292.235 312.639 290.622 314.643 288.951L314.002 288.183C315.993 286.522 317.932 284.803 319.818 283.027L320.504 283.755C322.405 281.965 324.251 280.118 326.042 278.217L325.314 277.531C327.089 275.646 328.809 273.706 330.47 271.716L331.237 272.356C332.909 270.353 334.521 268.298 336.072 266.194L335.267 265.601C336.802 263.518 338.276 261.386 339.687 259.209L340.526 259.753C341.944 257.565 343.297 255.331 344.584 253.054L343.713 252.562C344.986 250.311 346.193 248.017 347.331 245.683L348.23 246.122C349.372 243.78 350.446 241.4 351.448 238.982L350.525 238.599C351.514 236.213 352.434 233.791 353.281 231.335L354.226 231.661C355.075 229.201 355.852 226.708 356.554 224.184L355.591 223.915C356.283 221.429 356.902 218.912 357.445 216.367L358.423 216.576C358.967 214.034 359.435 211.464 359.827 208.868L358.838 208.719C359.223 206.172 359.532 203.601 359.765 201.007L360.761 201.097C360.993 198.513 361.149 195.907 361.227 193.281L360.228 193.252C360.266 191.958 360.286 190.659 360.286 189.356C360.286 188.053 360.266 186.754 360.228 185.461L361.227 185.431Z" stroke="#1E293B" stroke-width="2" stroke-dasharray="8 8"/>
<g filter="url(#filter0_b_352_99)">
<mask id="path-11-inside-1_352_99" fill="white">
<path fill-rule="evenodd" clip-rule="evenodd" d="M252.341 290.865L281.857 273.121C310.343 255.995 329.286 224.872 329.286 189.356C329.286 135.43 285.569 91.7134 231.643 91.7134C177.716 91.7134 134 135.43 134 189.356L134 189.492V357.713H299.528L252.341 290.865ZM361.286 389.713H124C116.299 389.713 112.449 389.713 109.508 388.215C106.92 386.897 104.817 384.793 103.499 382.206C102 379.265 102 375.414 102 367.713L102 189.356C102 117.756 160.043 59.7134 231.643 59.7134C303.242 59.7134 361.286 117.756 361.286 189.356C361.286 229.727 342.833 265.788 313.901 289.565C309.003 293.59 303.804 297.264 298.344 300.546L361.286 389.713ZM117.581 357.633C117.567 357.632 117.56 357.631 117.56 357.631C117.56 357.631 117.565 357.632 117.575 357.632M134.081 374.132C134.083 374.158 134.083 374.16 134.081 374.139C134.081 374.137 134.081 374.135 134.081 374.132Z"/>
</mask>
<path fill-rule="evenodd" clip-rule="evenodd" d="M252.341 290.865L281.857 273.121C310.343 255.995 329.286 224.872 329.286 189.356C329.286 135.43 285.569 91.7134 231.643 91.7134C177.716 91.7134 134 135.43 134 189.356L134 189.492V357.713H299.528L252.341 290.865ZM361.286 389.713H124C116.299 389.713 112.449 389.713 109.508 388.215C106.92 386.897 104.817 384.793 103.499 382.206C102 379.265 102 375.414 102 367.713L102 189.356C102 117.756 160.043 59.7134 231.643 59.7134C303.242 59.7134 361.286 117.756 361.286 189.356C361.286 229.727 342.833 265.788 313.901 289.565C309.003 293.59 303.804 297.264 298.344 300.546L361.286 389.713ZM117.581 357.633C117.567 357.632 117.56 357.631 117.56 357.631C117.56 357.631 117.565 357.632 117.575 357.632M134.081 374.132C134.083 374.158 134.083 374.16 134.081 374.139C134.081 374.137 134.081 374.135 134.081 374.132Z" fill="#1E293B" fill-opacity="0.2"/>
<path fill-rule="evenodd" clip-rule="evenodd" d="M252.341 290.865L281.857 273.121C310.343 255.995 329.286 224.872 329.286 189.356C329.286 135.43 285.569 91.7134 231.643 91.7134C177.716 91.7134 134 135.43 134 189.356L134 189.492V357.713H299.528L252.341 290.865ZM361.286 389.713H124C116.299 389.713 112.449 389.713 109.508 388.215C106.92 386.897 104.817 384.793 103.499 382.206C102 379.265 102 375.414 102 367.713L102 189.356C102 117.756 160.043 59.7134 231.643 59.7134C303.242 59.7134 361.286 117.756 361.286 189.356C361.286 229.727 342.833 265.788 313.901 289.565C309.003 293.59 303.804 297.264 298.344 300.546L361.286 389.713ZM117.581 357.633C117.567 357.632 117.56 357.631 117.56 357.631C117.56 357.631 117.565 357.632 117.575 357.632M134.081 374.132C134.083 374.158 134.083 374.16 134.081 374.139C134.081 374.137 134.081 374.135 134.081 374.132Z" stroke="#1E293B" stroke-width="4" mask="url(#path-11-inside-1_352_99)"/>
</g>
<g filter="url(#filter1_b_352_99)">
<path fill-rule="evenodd" clip-rule="evenodd" d="M366.066 92.1564C369.672 91.863 373.318 91.7134 377 91.7134C450.454 91.7134 510 151.259 510 224.713C510 298.167 450.454 357.713 377 357.713C376.341 357.713 375.683 357.708 375.026 357.699L396.795 388.538C478.589 378.759 542 309.141 542 224.713C542 133.586 468.127 59.7134 377 59.7134C363.678 59.7134 350.725 61.2921 338.318 64.2728C348.636 72.4314 357.957 81.797 366.066 92.1564Z" fill="#1E293B" fill-opacity="0.2"/>
<path d="M377 90.7134C373.474 90.7134 369.979 90.8496 366.521 91.1171C358.867 81.4036 350.151 72.5658 340.549 64.7785C352.271 62.1182 364.471 60.7134 377 60.7134C467.575 60.7134 541 134.139 541 224.713C541 308.425 478.279 377.489 397.268 387.473L376.966 358.713C376.978 358.713 376.989 358.713 377 358.713C451.006 358.713 511 298.719 511 224.713C511 150.707 451.006 90.7134 377 90.7134Z" stroke="#1E293B" stroke-width="2"/>
</g>
<defs>
<filter id="filter0_b_352_99" x="78" y="35.7134" width="307.286" height="378" filterUnits="userSpaceOnUse" color-interpolation-filters="sRGB">
<feFlood flood-opacity="0" result="BackgroundImageFix"/>
<feGaussianBlur in="BackgroundImageFix" stdDeviation="12"/>
<feComposite in2="SourceAlpha" operator="in" result="effect1_backgroundBlur_352_99"/>
<feBlend mode="normal" in="SourceGraphic" in2="effect1_backgroundBlur_352_99" result="shape"/>
</filter>
<filter id="filter1_b_352_99" x="314.318" y="35.7134" width="251.682" height="376.825" filterUnits="userSpaceOnUse" color-interpolation-filters="sRGB">
<feFlood flood-opacity="0" result="BackgroundImageFix"/>
<feGaussianBlur in="BackgroundImageFix" stdDeviation="12"/>
<feComposite in2="SourceAlpha" operator="in" result="effect1_backgroundBlur_352_99"/>
<feBlend mode="normal" in="SourceGraphic" in2="effect1_backgroundBlur_352_99" result="shape"/>
</filter>
</defs>
</svg>
