<svg width="644" height="456" viewBox="0 0 644 456" fill="none" xmlns="http://www.w3.org/2000/svg">
<path d="M0 389.285H644" stroke="white" stroke-opacity="0.4" stroke-width="2" stroke-dasharray="8 8"/>
<path d="M0 359.285H644" stroke="white" stroke-opacity="0.4" stroke-width="2" stroke-dasharray="8 8"/>
<path d="M0 61.2847H644" stroke="white" stroke-opacity="0.4" stroke-width="2" stroke-dasharray="8 8"/>
<path d="M0 91.2847H644" stroke="white" stroke-opacity="0.4" stroke-width="2" stroke-dasharray="8 8"/>
<path d="M50 1.28467L366 451.285" stroke="white" stroke-opacity="0.4" stroke-width="2" stroke-dasharray="8 8"/>
<path d="M85 1.28467L402 450.285" stroke="white" stroke-opacity="0.4" stroke-width="2" stroke-dasharray="8 8"/>
<path d="M132 1.28467L132 455.285" stroke="white" stroke-opacity="0.4" stroke-width="2" stroke-dasharray="8 8"/>
<path d="M104 1.28467L104 455.285" stroke="white" stroke-opacity="0.4" stroke-width="2" stroke-dasharray="8 8"/>
<path d="M377 91.2848C375.643 91.2848 374.291 91.305 372.943 91.345L372.973 92.3446C370.28 92.4247 367.606 92.5849 364.955 92.8228L364.866 91.8268C362.165 92.0693 359.486 92.392 356.833 92.7924L356.983 93.7812C354.32 94.1831 351.683 94.6639 349.075 95.2212L348.866 94.2433C346.215 94.8097 343.593 95.4546 341.003 96.1753L341.271 97.1388C338.681 97.8593 336.123 98.6562 333.599 99.5269L333.273 98.5816C330.715 99.4644 328.192 100.422 325.706 101.453L326.089 102.377C323.609 103.405 321.166 104.507 318.765 105.678L318.326 104.78C315.895 105.965 313.506 107.223 311.16 108.548L311.652 109.419C309.317 110.739 307.025 112.128 304.78 113.582L304.236 112.743C301.969 114.212 299.749 115.747 297.579 117.347L298.172 118.152C296.014 119.742 293.906 121.396 291.851 123.111L291.21 122.343C289.137 124.073 287.117 125.864 285.153 127.713L285.838 128.441C283.888 130.278 281.993 132.173 280.157 134.123L279.429 133.437C277.579 135.402 275.788 137.422 274.058 139.495L274.826 140.135C273.111 142.191 271.457 144.299 269.867 146.457L269.062 145.864C267.463 148.034 265.927 150.254 264.458 152.521L265.297 153.065C263.843 155.31 262.454 157.601 261.134 159.937L260.264 159.445C258.938 161.791 257.681 164.18 256.495 166.611L257.394 167.049C256.222 169.451 255.121 171.894 254.092 174.374L253.168 173.991C252.138 176.476 251.18 179 250.297 181.558L251.242 181.884C250.371 184.408 249.574 186.966 248.854 189.555L247.891 189.287C247.17 191.878 246.525 194.5 245.959 197.151L246.936 197.36C246.379 199.968 245.898 202.605 245.496 205.267L244.508 205.118C244.107 207.771 243.785 210.449 243.542 213.151L244.538 213.24C244.3 215.891 244.14 218.564 244.06 221.258L243.06 221.228C243.02 222.575 243 223.928 243 225.285C243 226.642 243.02 227.994 243.06 229.341L244.06 229.312C244.14 232.005 244.3 234.678 244.538 237.329L243.542 237.419C243.785 240.12 244.107 242.798 244.508 245.451L245.496 245.302C245.898 247.965 246.379 250.601 246.936 253.21L245.959 253.418C246.525 256.07 247.17 258.692 247.891 261.282L248.854 261.014C249.574 263.604 250.371 266.162 251.242 268.685L250.297 269.011C251.18 271.57 252.138 274.093 253.168 276.579L254.092 276.195C255.121 278.676 256.222 281.118 257.394 283.52L256.495 283.958C257.681 286.389 258.938 288.779 260.264 291.125L261.134 290.633C262.454 292.968 263.843 295.26 265.297 297.505L264.458 298.048C265.927 300.316 267.463 302.536 269.062 304.706L269.867 304.113C271.457 306.27 273.111 308.379 274.826 310.434L274.058 311.075C275.788 313.148 277.579 315.168 279.429 317.132L280.157 316.447C281.993 318.397 283.888 320.291 285.838 322.128L285.153 322.856C287.117 324.706 289.137 326.497 291.21 328.226L291.851 327.458C293.906 329.173 296.014 330.827 298.172 332.418L297.579 333.223C299.749 334.822 301.969 336.358 304.236 337.827L304.78 336.987C307.025 338.442 309.317 339.83 311.652 341.15L311.16 342.021C313.506 343.347 315.895 344.604 318.326 345.79L318.765 344.891C321.167 346.063 323.609 347.164 326.089 348.193L325.706 349.116C328.192 350.147 330.715 351.105 333.273 351.988L333.6 351.043C336.123 351.913 338.681 352.71 341.271 353.431L341.003 354.394C343.593 355.115 346.215 355.76 348.866 356.326L349.075 355.348C351.683 355.905 354.32 356.386 356.983 356.788L356.833 357.777C359.486 358.177 362.165 358.5 364.866 358.743L364.955 357.747C367.606 357.985 370.28 358.145 372.973 358.225L372.943 359.224C374.291 359.264 375.643 359.285 377 359.285C378.357 359.285 379.709 359.264 381.057 359.224L381.027 358.225C383.72 358.145 386.394 357.985 389.045 357.747L389.134 358.743C391.835 358.5 394.514 358.177 397.167 357.777L397.017 356.788C399.68 356.386 402.316 355.905 404.925 355.348L405.134 356.326C407.785 355.76 410.407 355.115 412.997 354.394L412.729 353.431C415.319 352.71 417.877 351.913 420.4 351.043L420.727 351.988C423.285 351.105 425.808 350.147 428.294 349.116L427.911 348.193C430.391 347.164 432.833 346.063 435.235 344.891L435.674 345.79C438.105 344.604 440.494 343.347 442.84 342.021L442.348 341.15C444.683 339.83 446.975 338.442 449.22 336.987L449.764 337.827C452.031 336.358 454.251 334.822 456.421 333.223L455.828 332.418C457.986 330.827 460.094 329.173 462.149 327.458L462.79 328.226C464.863 326.497 466.883 324.706 468.847 322.856L468.162 322.128C470.112 320.291 472.007 318.397 473.843 316.447L474.571 317.132C476.421 315.168 478.212 313.148 479.941 311.075L479.174 310.434C480.889 308.379 482.543 306.27 484.133 304.113L484.938 304.706C486.537 302.536 488.073 300.316 489.542 298.048L488.703 297.505C490.157 295.26 491.546 292.968 492.866 290.632L493.736 291.125C495.062 288.779 496.319 286.389 497.505 283.958L496.606 283.52C497.778 281.118 498.879 278.676 499.908 276.195L500.832 276.579C501.862 274.093 502.82 271.57 503.703 269.011L502.758 268.685C503.629 266.162 504.425 263.604 505.146 261.014L506.109 261.282C506.83 258.692 507.475 256.07 508.041 253.418L507.063 253.21C507.621 250.601 508.102 247.965 508.504 245.302L509.492 245.451C509.893 242.798 510.215 240.12 510.458 237.419L509.462 237.329C509.7 234.678 509.86 232.005 509.94 229.312L510.94 229.341C510.98 227.994 511 226.642 511 225.285C511 223.928 510.98 222.575 510.94 221.228L509.94 221.258C509.86 218.564 509.7 215.891 509.462 213.24L510.458 213.151C510.215 210.449 509.893 207.771 509.492 205.118L508.504 205.267C508.102 202.605 507.621 199.968 507.063 197.36L508.041 197.151C507.475 194.5 506.83 191.878 506.109 189.287L505.146 189.555C504.425 186.966 503.629 184.408 502.758 181.884L503.703 181.558C502.82 179 501.862 176.476 500.832 173.991L499.908 174.374C498.879 171.894 497.778 169.451 496.606 167.049L497.505 166.611C496.319 164.18 495.062 161.791 493.736 159.445L492.866 159.937C491.546 157.601 490.157 155.31 488.703 153.065L489.542 152.521C488.073 150.254 486.537 148.034 484.938 145.864L484.133 146.457C482.543 144.299 480.888 142.191 479.174 140.135L479.941 139.495C478.212 137.422 476.421 135.402 474.571 133.437L473.843 134.123C472.007 132.173 470.112 130.278 468.162 128.441L468.847 127.713C466.883 125.864 464.863 124.073 462.79 122.343L462.149 123.111C460.094 121.396 457.986 119.742 455.828 118.152L456.421 117.347C454.251 115.747 452.031 114.212 449.764 112.743L449.22 113.582C446.975 112.128 444.683 110.739 442.348 109.419L442.84 108.548C440.494 107.223 438.105 105.965 435.674 104.78L435.235 105.678C432.833 104.507 430.391 103.405 427.911 102.377L428.294 101.453C425.808 100.422 423.285 99.4644 420.727 98.5816L420.4 99.5269C417.877 98.6562 415.319 97.8593 412.729 97.1388L412.997 96.1753C410.407 95.4546 407.785 94.8098 405.134 94.2433L404.925 95.2212C402.316 94.6639 399.68 94.1831 397.017 93.7812L397.167 92.7924C394.514 92.392 391.835 92.0693 389.134 91.8268L389.045 92.8228C386.394 92.5849 383.72 92.4247 381.027 92.3446L381.057 91.345C379.709 91.305 378.357 91.2848 377 91.2848ZM372.938 60.3338C370.225 60.3993 367.528 60.5304 364.849 60.7254L364.922 61.7227C362.233 61.9185 359.562 62.179 356.91 62.5029L356.789 61.5102C354.098 61.839 351.426 62.2324 348.777 62.6891L348.947 63.6746C346.292 64.1321 343.66 64.6534 341.05 65.2369L340.832 64.261C338.188 64.8523 335.569 65.5069 332.975 66.2233L333.241 67.1873C330.647 67.9037 328.078 68.6823 325.537 69.5213L325.224 68.5718C322.653 69.4205 320.111 70.3307 317.598 71.3007L317.958 72.2336C315.449 73.2021 312.97 74.2305 310.523 75.3171L310.117 74.4031C307.645 75.5007 305.204 76.6572 302.798 77.871L303.248 78.7639C300.848 79.9742 298.482 81.2417 296.152 82.5647L295.658 81.6951C293.307 83.0298 290.992 84.4205 288.715 85.8654L289.251 86.7098C286.983 88.1491 284.752 89.6425 282.561 91.1883L281.985 90.3712C279.777 91.9289 277.609 93.5395 275.483 95.201L276.099 95.9889C273.983 97.6423 271.909 99.3464 269.879 101.1L269.225 100.343C267.181 102.108 265.181 103.922 263.226 105.784L263.915 106.508C261.972 108.359 260.074 110.257 258.223 112.2L257.499 111.511C255.637 113.465 253.823 115.466 252.058 117.51L252.815 118.164C251.062 120.194 249.357 122.268 247.704 124.384L246.916 123.768C245.255 125.894 243.644 128.062 242.086 130.27L242.904 130.846C241.358 133.037 239.864 135.268 238.425 137.536L237.581 137C236.136 139.277 234.745 141.592 233.41 143.943L234.28 144.437C232.957 146.767 231.689 149.133 230.479 151.533L229.586 151.082C228.372 153.489 227.216 155.929 226.118 158.402L227.032 158.807C225.946 161.255 224.917 163.734 223.949 166.243L223.016 165.883C222.046 168.396 221.136 170.938 220.287 173.508L221.237 173.822C220.398 176.363 219.619 178.931 218.902 181.526L217.939 181.259C217.222 183.853 216.567 186.473 215.976 189.117L216.952 189.335C216.369 191.944 215.847 194.577 215.39 197.231L214.404 197.061C213.948 199.711 213.554 202.382 213.225 205.074L214.218 205.195C213.894 207.846 213.634 210.517 213.438 213.207L212.441 213.134C212.246 215.813 212.115 218.51 212.049 221.223L213.049 221.247C213.016 222.589 213 223.935 213 225.285C213 226.635 213.016 227.98 213.049 229.322L212.049 229.347C212.115 232.06 212.246 234.756 212.441 237.435L213.438 237.363C213.634 240.052 213.894 242.723 214.218 245.374L213.225 245.496C213.554 248.187 213.948 250.858 214.404 253.508L215.39 253.338C215.847 255.993 216.369 258.625 216.952 261.234L215.976 261.453C216.567 264.096 217.222 266.716 217.939 269.31L218.902 269.044C219.619 271.638 220.398 274.207 221.237 276.747L220.287 277.061C221.136 279.631 222.046 282.174 223.016 284.686L223.949 284.326C224.917 286.835 225.946 289.314 227.032 291.762L226.118 292.168C227.216 294.64 228.372 297.08 229.586 299.487L230.479 299.037C231.689 301.436 232.957 303.802 234.28 306.133L233.41 306.626C234.745 308.977 236.136 311.292 237.581 313.57L238.425 313.034C239.864 315.302 241.358 317.532 242.904 319.723L242.086 320.3C243.644 322.507 245.255 324.675 246.916 326.801L247.704 326.186C249.357 328.301 251.062 330.375 252.815 332.406L252.058 333.059C253.823 335.104 255.637 337.104 257.499 339.059L258.223 338.369C260.074 340.313 261.972 342.211 263.915 344.062L263.226 344.786C265.181 346.648 267.181 348.462 269.225 350.227L269.879 349.47C271.909 351.223 273.983 352.927 276.099 354.581L275.483 355.368C277.609 357.03 279.777 358.641 281.985 360.198L282.561 359.381C284.752 360.927 286.983 362.42 289.251 363.86L288.715 364.704C290.992 366.149 293.307 367.54 295.658 368.874L296.152 368.005C298.482 369.328 300.848 370.595 303.248 371.806L302.798 372.698C305.204 373.912 307.645 375.069 310.117 376.166L310.523 375.252C312.97 376.339 315.449 377.367 317.958 378.336L317.598 379.269C320.111 380.239 322.653 381.149 325.224 381.998L325.537 381.048C328.078 381.887 330.647 382.666 333.241 383.382L332.975 384.346C335.569 385.063 338.188 385.717 340.832 386.308L341.05 385.332C343.659 385.916 346.292 386.437 348.947 386.895L348.777 387.88C351.426 388.337 354.098 388.73 356.789 389.059L356.91 388.067C359.562 388.39 362.233 388.651 364.922 388.847L364.849 389.844C367.528 390.039 370.225 390.17 372.938 390.236L372.962 389.236C374.304 389.268 375.65 389.285 377 389.285C378.35 389.285 379.696 389.268 381.038 389.236L381.062 390.236C383.775 390.17 386.472 390.039 389.151 389.844L389.078 388.847C391.767 388.651 394.438 388.39 397.09 388.067L397.211 389.059C399.902 388.731 402.573 388.337 405.223 387.88L405.053 386.895C407.708 386.437 410.34 385.916 412.95 385.333L413.168 386.308C415.811 385.717 418.431 385.063 421.025 384.346L420.759 383.382C423.353 382.666 425.922 381.887 428.463 381.048L428.776 381.998C431.347 381.149 433.889 380.239 436.402 379.269L436.042 378.336C438.55 377.367 441.03 376.339 443.477 375.252L443.883 376.166C446.355 375.069 448.796 373.912 451.202 372.698L450.752 371.806C453.152 370.595 455.518 369.328 457.848 368.005L458.342 368.874C460.693 367.54 463.008 366.149 465.285 364.704L464.749 363.86C467.017 362.42 469.248 360.927 471.438 359.381L472.015 360.198C474.223 358.641 476.391 357.03 478.517 355.368L477.901 354.581C480.016 352.927 482.09 351.223 484.121 349.47L484.775 350.227C486.819 348.462 488.819 346.648 490.774 344.786L490.084 344.062C492.028 342.211 493.926 340.313 495.777 338.369L496.501 339.059C498.363 337.104 500.177 335.104 501.942 333.059L501.185 332.406C502.938 330.375 504.642 328.301 506.296 326.186L507.084 326.801C508.745 324.675 510.356 322.508 511.913 320.3L511.096 319.723C512.642 317.532 514.136 315.302 515.575 313.034L516.419 313.57C517.864 311.292 519.255 308.977 520.59 306.626L519.72 306.133C521.043 303.802 522.311 301.436 523.521 299.037L524.414 299.487C525.627 297.08 526.784 294.64 527.882 292.168L526.968 291.762C528.054 289.314 529.083 286.835 530.051 284.326L530.984 284.686C531.954 282.174 532.864 279.631 533.713 277.061L532.763 276.747C533.602 274.207 534.381 271.638 535.097 269.044L536.061 269.31C536.778 266.716 537.432 264.096 538.024 261.453L537.048 261.234C537.631 258.625 538.153 255.993 538.61 253.338L539.596 253.508C540.052 250.858 540.446 248.187 540.774 245.496L539.782 245.374C540.106 242.723 540.366 240.052 540.562 237.363L541.559 237.435C541.754 234.756 541.885 232.06 541.951 229.347L540.951 229.322C540.984 227.981 541 226.635 541 225.285C541 223.935 540.984 222.589 540.951 221.247L541.951 221.223C541.885 218.51 541.754 215.813 541.559 213.134L540.562 213.207C540.366 210.518 540.106 207.846 539.782 205.195L540.774 205.074C540.446 202.382 540.052 199.711 539.596 197.062L538.61 197.231C538.153 194.577 537.631 191.944 537.048 189.335L538.024 189.117C537.432 186.473 536.778 183.854 536.061 181.259L535.097 181.526C534.381 178.931 533.602 176.363 532.763 173.822L533.713 173.508C532.864 170.938 531.954 168.396 530.984 165.883L530.051 166.243C529.083 163.734 528.054 161.255 526.968 158.807L527.882 158.402C526.784 155.929 525.627 153.489 524.414 151.083L523.521 151.533C522.311 149.133 521.043 146.767 519.72 144.437L520.59 143.943C519.255 141.592 517.864 139.277 516.419 137L515.575 137.536C514.136 135.268 512.642 133.037 511.096 130.846L511.913 130.27C510.356 128.062 508.745 125.894 507.084 123.768L506.296 124.384C504.642 122.268 502.938 120.194 501.185 118.164L501.942 117.51C500.177 115.466 498.363 113.465 496.501 111.511L495.777 112.2C493.926 110.257 492.028 108.359 490.084 106.508L490.774 105.784C488.819 103.922 486.819 102.108 484.775 100.343L484.121 101.1C482.09 99.3464 480.016 97.6423 477.901 95.9889L478.517 95.201C476.391 93.5394 474.223 91.9289 472.015 90.3712L471.438 91.1883C469.248 89.6425 467.017 88.1491 464.749 86.7098L465.285 85.8654C463.008 84.4205 460.693 83.0297 458.342 81.6951L457.848 82.5647C455.518 81.2417 453.152 79.9742 450.752 78.7639L451.202 77.871C448.796 76.6572 446.355 75.5007 443.883 74.4032L443.477 75.3171C441.03 74.2306 438.551 73.2021 436.042 72.2336L436.402 71.3007C433.889 70.3308 431.347 69.4205 428.776 68.5718L428.463 69.5214C425.922 68.6823 423.353 67.9037 420.759 67.1872L421.025 66.2233C418.431 65.5069 415.812 64.8523 413.168 64.2611L412.95 65.237C410.34 64.6535 407.708 64.1321 405.053 63.6746L405.223 62.6891C402.574 62.2324 399.902 61.839 397.211 61.5102L397.09 62.5029C394.438 62.179 391.767 61.9185 389.078 61.7227L389.151 60.7254C386.472 60.5304 383.775 60.3993 381.062 60.3338L381.038 61.3335C379.696 61.3011 378.35 61.2848 377 61.2848C375.65 61.2848 374.304 61.3011 372.962 61.3335L372.938 60.3338Z" stroke="white" stroke-width="2" stroke-dasharray="8 8"/>
<path d="M330.286 189.927C330.286 188.629 330.261 187.336 330.211 186.05L329.212 186.088C329.112 183.513 328.913 180.964 328.617 178.444L329.611 178.327C329.308 175.746 328.906 173.194 328.408 170.677L327.427 170.871C326.928 168.349 326.332 165.861 325.643 163.412L326.605 163.141C325.902 160.645 325.104 158.188 324.213 155.776L323.275 156.122C322.387 153.715 321.406 151.352 320.338 149.038L321.245 148.619C320.16 146.267 318.984 143.966 317.723 141.72L316.851 142.209C315.598 139.976 314.259 137.796 312.839 135.676L313.67 135.119C312.231 132.97 310.711 130.881 309.112 128.856L308.327 129.476C306.742 127.468 305.08 125.523 303.345 123.647L304.079 122.968C302.325 121.072 300.498 119.245 298.602 117.491L297.923 118.226C296.047 116.491 294.103 114.828 292.095 113.243L292.714 112.458C290.689 110.86 288.6 109.339 286.451 107.9L285.895 108.731C283.774 107.311 281.595 105.973 279.361 104.719L279.851 103.847C277.604 102.586 275.303 101.411 272.952 100.325L272.532 101.233C270.219 100.164 267.856 99.1835 265.448 98.295L265.794 97.3569C263.382 96.4667 260.926 95.668 258.429 94.9652L258.158 95.9278C255.709 95.2385 253.222 94.6423 250.699 94.1432L250.893 93.1622C248.376 92.6643 245.825 92.2621 243.243 91.9596L243.127 92.9528C240.606 92.6576 238.057 92.4583 235.482 92.3588L235.521 91.3595C234.234 91.3098 232.941 91.2847 231.643 91.2847C230.344 91.2847 229.052 91.3098 227.765 91.3595L227.804 92.3588C225.229 92.4583 222.679 92.6576 220.159 92.9528L220.043 91.9596C217.461 92.2621 214.91 92.6643 212.393 93.1622L212.587 94.1432C210.064 94.6423 207.576 95.2385 205.128 95.9278L204.857 94.9652C202.36 95.668 199.904 96.4667 197.491 97.3569L197.838 98.295C195.43 99.1835 193.067 100.164 190.753 101.233L190.334 100.325C187.983 101.411 185.682 102.586 183.435 103.847L183.924 104.719C181.691 105.973 179.512 107.311 177.391 108.731L176.835 107.9C174.686 109.339 172.596 110.86 170.571 112.458L171.191 113.243C169.183 114.828 167.239 116.491 165.363 118.226L164.684 117.491C162.788 119.245 160.96 121.072 159.207 122.968L159.941 123.647C158.206 125.523 156.544 127.468 154.959 129.476L154.174 128.856C152.575 130.881 151.054 132.97 149.615 135.119L150.446 135.676C149.027 137.796 147.688 139.975 146.434 142.209L145.562 141.72C144.301 143.966 143.126 146.267 142.04 148.619L142.948 149.038C141.88 151.352 140.899 153.715 140.01 156.122L139.072 155.776C138.182 158.188 137.383 160.645 136.681 163.141L137.643 163.412C136.954 165.861 136.358 168.349 135.859 170.871L134.878 170.677C134.38 173.194 133.977 175.746 133.675 178.327L134.668 178.444C134.373 180.964 134.174 183.513 134.074 186.088L133.075 186.05C133.025 187.336 133 188.629 133 189.927C133 191.226 133.025 192.519 133.075 193.805L134.074 193.767C134.174 196.342 134.373 198.891 134.668 201.411L133.675 201.528C133.977 204.109 134.38 206.661 134.878 209.178L135.859 208.984C136.358 211.506 136.954 213.994 137.643 216.443L136.681 216.714C137.383 219.21 138.182 221.667 139.072 224.079L140.01 223.733C140.899 226.14 141.88 228.503 142.948 230.817L142.04 231.236C143.126 233.587 144.301 235.889 145.562 238.135L146.434 237.646C147.688 239.879 149.027 242.059 150.446 244.179L149.615 244.736C151.054 246.885 152.575 248.974 154.174 250.999L154.959 250.379C156.544 252.387 158.206 254.332 159.941 256.208L159.207 256.886C160.96 258.783 162.788 260.61 164.684 262.364L165.363 261.629C167.239 263.364 169.183 265.027 171.191 266.612L170.571 267.397C172.596 268.995 174.686 270.516 176.835 271.955L177.391 271.124C179.512 272.544 181.691 273.882 183.924 275.136L183.435 276.008C185.682 277.269 187.983 278.444 190.334 279.53L190.753 278.622C193.067 279.691 195.43 280.671 197.838 281.56L197.491 282.498C199.904 283.388 202.36 284.187 204.857 284.89L205.128 283.927C207.576 284.617 210.064 285.213 212.587 285.712L212.393 286.693C214.91 287.191 217.461 287.593 220.043 287.895L220.159 286.902C222.679 287.197 225.229 287.397 227.804 287.496L227.765 288.495C229.052 288.545 230.344 288.57 231.643 288.57C232.941 288.57 234.234 288.545 235.521 288.495L235.482 287.496C238.057 287.397 240.606 287.197 243.127 286.902L243.243 287.895C245.825 287.593 248.376 287.191 250.893 286.693L250.699 285.712C253.222 285.213 255.709 284.617 258.158 283.927L258.429 284.89C260.926 284.187 263.382 283.388 265.794 282.498L265.448 281.56C267.856 280.671 270.218 279.691 272.532 278.622L272.952 279.53C275.303 278.444 277.604 277.269 279.851 276.008L279.361 275.136C281.595 273.882 283.774 272.544 285.895 271.124L286.451 271.955C288.6 270.516 290.689 268.995 292.714 267.397L292.095 266.612C294.103 265.027 296.047 263.364 297.923 261.629L298.602 262.364C300.498 260.61 302.325 258.783 304.079 256.887L303.345 256.208C305.08 254.332 306.742 252.387 308.327 250.379L309.112 250.999C310.711 248.974 312.231 246.885 313.67 244.736L312.839 244.179C314.259 242.059 315.598 239.879 316.851 237.646L317.723 238.135C318.984 235.889 320.16 233.588 321.245 231.236L320.338 230.817C321.406 228.503 322.387 226.14 323.275 223.733L324.213 224.079C325.104 221.667 325.902 219.21 326.605 216.714L325.643 216.443C326.332 213.994 326.928 211.506 327.427 208.984L328.408 209.178C328.906 206.661 329.308 204.109 329.611 201.528L328.617 201.411C328.913 198.891 329.112 196.342 329.212 193.767L330.211 193.805C330.261 192.519 330.286 191.226 330.286 189.927ZM361.227 186.002C361.149 183.377 360.993 180.771 360.761 178.187L359.765 178.276C359.532 175.683 359.223 173.111 358.838 170.565L359.827 170.415C359.435 167.82 358.967 165.25 358.423 162.708L357.445 162.917C356.902 160.372 356.283 157.855 355.591 155.368L356.554 155.1C355.852 152.576 355.075 150.082 354.226 147.623L353.281 147.949C352.434 145.493 351.514 143.071 350.525 140.685L351.448 140.302C350.446 137.884 349.372 135.503 348.23 133.162L347.331 133.601C346.193 131.267 344.986 128.973 343.713 126.721L344.584 126.229C343.297 123.953 341.944 121.719 340.526 119.531L339.687 120.074C338.276 117.898 336.802 115.766 335.267 113.683L336.072 113.089C334.521 110.986 332.909 108.931 331.237 106.927L330.47 107.568C328.809 105.578 327.089 103.638 325.314 101.752L326.042 101.067C324.251 99.1658 322.405 97.3189 320.504 95.5287L319.818 96.2567C317.932 94.4809 315.993 92.7613 314.002 91.1007L314.643 90.3329C312.639 88.6613 310.584 87.049 308.481 85.4987L307.888 86.3037C305.804 84.7681 303.673 83.2939 301.496 81.8836L302.04 81.0444C299.851 79.6266 297.618 78.2731 295.341 76.9863L294.849 77.8569C292.597 76.5842 290.303 75.3773 287.97 74.239L288.408 73.3403C286.067 72.1982 283.686 71.1246 281.268 70.122L280.885 71.0458C278.5 70.0563 276.077 69.1367 273.622 68.2893L273.948 67.344C271.488 66.4952 268.995 65.7184 266.47 65.0161L266.202 65.9795C263.716 65.2877 261.199 64.6687 258.654 64.1249L258.863 63.147C256.32 62.6038 253.75 62.1351 251.155 61.7433L251.006 62.7321C248.459 62.3477 245.887 62.0379 243.294 61.8051L243.383 60.8091C240.799 60.5772 238.193 60.421 235.568 60.343L235.538 61.3425C234.245 61.304 232.946 61.2847 231.643 61.2847C230.34 61.2847 229.041 61.304 227.747 61.3425L227.718 60.343C225.092 60.421 222.486 60.5772 219.902 60.8091L219.992 61.8051C217.398 62.0379 214.827 62.3477 212.28 62.7321L212.131 61.7433C209.535 62.1351 206.965 62.6038 204.423 63.147L204.632 64.1249C202.087 64.6687 199.57 65.2877 197.083 65.9795L196.815 65.0161C194.291 65.7185 191.798 66.4953 189.338 67.344L189.664 68.2893C187.208 69.1367 184.786 70.0564 182.4 71.0458L182.017 70.122C179.599 71.1246 177.219 72.1982 174.877 73.3403L175.316 74.2391C172.982 75.3773 170.688 76.5842 168.437 77.8569L167.945 76.9864C165.668 78.2731 163.434 79.6267 161.246 81.0444L161.79 81.8837C159.613 83.2939 157.481 84.7681 155.398 86.3037L154.805 85.4987C152.701 87.049 150.646 88.6613 148.643 90.3329L149.283 91.1008C147.293 92.7613 145.353 94.4809 143.468 96.2568L142.782 95.5287C140.881 97.3189 139.034 99.1658 137.244 101.067L137.972 101.752C136.196 103.638 134.477 105.578 132.816 107.568L132.048 106.927C130.377 108.931 128.764 110.986 127.214 113.089L128.019 113.683C126.483 115.766 125.009 117.898 123.599 120.074L122.76 119.531C121.342 121.719 119.988 123.953 118.702 126.229L119.572 126.721C118.299 128.973 117.093 131.267 115.954 133.601L115.056 133.162C113.914 135.503 112.84 137.884 111.837 140.302L112.761 140.685C111.772 143.071 110.852 145.493 110.005 147.949L109.059 147.623C108.211 150.082 107.434 152.576 106.731 155.1L107.695 155.368C107.003 157.855 106.384 160.372 105.84 162.917L104.862 162.708C104.319 165.25 103.85 167.82 103.459 170.415L104.447 170.565C104.063 173.111 103.753 175.683 103.52 178.276L102.524 178.187C102.292 180.771 102.136 183.377 102.058 186.002L103.058 186.032C103.019 187.326 103 188.624 103 189.927C103 191.231 103.019 192.529 103.058 193.823L102.058 193.853C102.136 196.478 102.292 199.084 102.524 201.668L103.52 201.579C103.753 204.172 104.063 206.744 104.447 209.29L103.459 209.44C103.85 212.035 104.319 214.605 104.862 217.147L105.84 216.938C106.384 219.483 107.003 222 107.695 224.487L106.731 224.755C107.434 227.279 108.211 229.773 109.059 232.232L110.005 231.906C110.852 234.362 111.772 236.784 112.761 239.17L111.837 239.553C112.84 241.971 113.914 244.352 115.056 246.693L115.954 246.254C117.093 248.588 118.3 250.882 119.572 253.134L118.702 253.626C119.988 255.902 121.342 258.136 122.76 260.324L123.599 259.781C125.009 261.957 126.483 264.089 128.019 266.172L127.214 266.766C128.764 268.869 130.377 270.924 132.048 272.928L132.816 272.287C134.477 274.277 136.196 276.217 137.972 278.103L137.244 278.788C139.034 280.689 140.881 282.536 142.782 284.326L143.468 283.598C145.354 285.374 147.293 287.094 149.283 288.754L148.643 289.522C150.646 291.194 152.701 292.806 154.805 294.356L155.398 293.551C157.481 295.087 159.613 296.561 161.79 297.971L161.246 298.811C163.434 300.228 165.668 301.582 167.945 302.869L168.437 301.998C170.688 303.271 172.982 304.478 175.316 305.616L174.877 306.515C177.219 307.657 179.599 308.73 182.017 309.733L182.4 308.809C184.786 309.799 187.208 310.718 189.664 311.566L189.338 312.511C191.798 313.36 194.291 314.137 196.815 314.839L197.084 313.875C199.57 314.567 202.087 315.186 204.632 315.73L204.423 316.708C206.965 317.251 209.535 317.72 212.131 318.112L212.28 317.123C214.827 317.507 217.398 317.817 219.992 318.05L219.902 319.046C222.486 319.278 225.092 319.434 227.718 319.512L227.747 318.512C229.041 318.551 230.34 318.57 231.643 318.57C232.946 318.57 234.245 318.551 235.538 318.512L235.568 319.512C238.194 319.434 240.799 319.278 243.383 319.046L243.294 318.05C245.888 317.817 248.459 317.507 251.006 317.123L251.155 318.112C253.75 317.72 256.32 317.251 258.863 316.708L258.654 315.73C261.199 315.186 263.716 314.567 266.202 313.875L266.47 314.839C268.995 314.137 271.488 313.36 273.948 312.511L273.622 311.566C276.077 310.718 278.5 309.799 280.885 308.809L281.269 309.733C283.686 308.73 286.067 307.657 288.408 306.515L287.97 305.616C290.303 304.478 292.597 303.271 294.849 301.998L295.341 302.869C297.618 301.582 299.851 300.228 302.04 298.811L301.496 297.971C303.673 296.561 305.804 295.087 307.888 293.551L308.481 294.356C310.584 292.806 312.639 291.194 314.643 289.522L314.002 288.754C315.993 287.094 317.932 285.374 319.818 283.598L320.504 284.326C322.405 282.536 324.251 280.689 326.042 278.788L325.314 278.103C327.089 276.217 328.809 274.277 330.47 272.287L331.237 272.928C332.909 270.924 334.521 268.869 336.072 266.766L335.267 266.172C336.802 264.089 338.276 261.957 339.687 259.781L340.526 260.324C341.944 258.136 343.297 255.902 344.584 253.626L343.713 253.134C344.986 250.882 346.193 248.588 347.331 246.254L348.23 246.693C349.372 244.352 350.446 241.971 351.448 239.553L350.525 239.17C351.514 236.784 352.434 234.362 353.281 231.906L354.226 232.232C355.075 229.773 355.852 227.279 356.554 224.755L355.591 224.487C356.283 222 356.902 219.483 357.445 216.938L358.423 217.147C358.967 214.605 359.435 212.035 359.827 209.44L358.838 209.29C359.223 206.743 359.532 204.172 359.765 201.579L360.761 201.668C360.993 199.084 361.149 196.478 361.227 193.853L360.228 193.823C360.266 192.529 360.286 191.231 360.286 189.927C360.286 188.624 360.266 187.326 360.228 186.032L361.227 186.002Z" stroke="white" stroke-width="2" stroke-dasharray="8 8"/>
<g filter="url(#filter0_b_352_112)">
<mask id="path-11-inside-1_352_112" fill="white">
<path fill-rule="evenodd" clip-rule="evenodd" d="M252.341 291.436L281.857 273.692C310.343 256.567 329.286 225.443 329.286 189.927C329.286 136.001 285.569 92.2846 231.643 92.2846C177.716 92.2846 134 136.001 134 189.927L134 190.064V358.285H299.528L252.341 291.436ZM361.286 390.285H124C116.299 390.285 112.449 390.285 109.508 388.786C106.92 387.468 104.817 385.364 103.499 382.777C102 379.836 102 375.985 102 368.285L102 189.927C102 118.328 160.043 60.2847 231.643 60.2847C303.242 60.2847 361.286 118.328 361.286 189.927C361.286 230.298 342.833 266.359 313.901 290.136C309.003 294.162 303.804 297.835 298.344 301.118L361.286 390.285ZM117.581 358.204C117.567 358.203 117.56 358.202 117.56 358.202C117.56 358.202 117.565 358.203 117.575 358.204M134.081 374.704C134.083 374.729 134.083 374.732 134.081 374.71C134.081 374.708 134.081 374.706 134.081 374.704Z"/>
</mask>
<path fill-rule="evenodd" clip-rule="evenodd" d="M252.341 291.436L281.857 273.692C310.343 256.567 329.286 225.443 329.286 189.927C329.286 136.001 285.569 92.2846 231.643 92.2846C177.716 92.2846 134 136.001 134 189.927L134 190.064V358.285H299.528L252.341 291.436ZM361.286 390.285H124C116.299 390.285 112.449 390.285 109.508 388.786C106.92 387.468 104.817 385.364 103.499 382.777C102 379.836 102 375.985 102 368.285L102 189.927C102 118.328 160.043 60.2847 231.643 60.2847C303.242 60.2847 361.286 118.328 361.286 189.927C361.286 230.298 342.833 266.359 313.901 290.136C309.003 294.162 303.804 297.835 298.344 301.118L361.286 390.285ZM117.581 358.204C117.567 358.203 117.56 358.202 117.56 358.202C117.56 358.202 117.565 358.203 117.575 358.204M134.081 374.704C134.083 374.729 134.083 374.732 134.081 374.71C134.081 374.708 134.081 374.706 134.081 374.704Z" fill="#BACAE6" fill-opacity="0.2"/>
<path fill-rule="evenodd" clip-rule="evenodd" d="M252.341 291.436L281.857 273.692C310.343 256.567 329.286 225.443 329.286 189.927C329.286 136.001 285.569 92.2846 231.643 92.2846C177.716 92.2846 134 136.001 134 189.927L134 190.064V358.285H299.528L252.341 291.436ZM361.286 390.285H124C116.299 390.285 112.449 390.285 109.508 388.786C106.92 387.468 104.817 385.364 103.499 382.777C102 379.836 102 375.985 102 368.285L102 189.927C102 118.328 160.043 60.2847 231.643 60.2847C303.242 60.2847 361.286 118.328 361.286 189.927C361.286 230.298 342.833 266.359 313.901 290.136C309.003 294.162 303.804 297.835 298.344 301.118L361.286 390.285ZM117.581 358.204C117.567 358.203 117.56 358.202 117.56 358.202C117.56 358.202 117.565 358.203 117.575 358.204M134.081 374.704C134.083 374.729 134.083 374.732 134.081 374.71C134.081 374.708 134.081 374.706 134.081 374.704Z" stroke="white" stroke-width="4" mask="url(#path-11-inside-1_352_112)"/>
</g>
<g filter="url(#filter1_b_352_112)">
<path fill-rule="evenodd" clip-rule="evenodd" d="M366.066 92.7277C369.672 92.4342 373.318 92.2847 377 92.2847C450.454 92.2847 510 151.831 510 225.285C510 298.738 450.454 358.284 377 358.284C376.341 358.284 375.683 358.28 375.026 358.27L396.795 389.109C478.589 379.33 542 309.712 542 225.285C542 134.158 468.127 60.2847 377 60.2847C363.678 60.2847 350.725 61.8634 338.318 64.844C348.636 73.0027 357.957 82.3683 366.066 92.7277Z" fill="#BACAE6" fill-opacity="0.2"/>
<path d="M377 91.2847C373.474 91.2847 369.979 91.4209 366.521 91.6884C358.867 81.9749 350.151 73.1371 340.549 65.3498C352.271 62.6895 364.471 61.2847 377 61.2847C467.575 61.2847 541 134.71 541 225.285C541 308.997 478.279 378.061 397.268 388.045L376.966 359.284C376.978 359.284 376.989 359.284 377 359.284C451.006 359.284 511 299.291 511 225.285C511 151.278 451.006 91.2847 377 91.2847Z" stroke="white" stroke-width="2"/>
</g>
<defs>
<filter id="filter0_b_352_112" x="78" y="36.2847" width="307.286" height="378" filterUnits="userSpaceOnUse" color-interpolation-filters="sRGB">
<feFlood flood-opacity="0" result="BackgroundImageFix"/>
<feGaussianBlur in="BackgroundImageFix" stdDeviation="12"/>
<feComposite in2="SourceAlpha" operator="in" result="effect1_backgroundBlur_352_112"/>
<feBlend mode="normal" in="SourceGraphic" in2="effect1_backgroundBlur_352_112" result="shape"/>
</filter>
<filter id="filter1_b_352_112" x="314.318" y="36.2847" width="251.682" height="376.825" filterUnits="userSpaceOnUse" color-interpolation-filters="sRGB">
<feFlood flood-opacity="0" result="BackgroundImageFix"/>
<feGaussianBlur in="BackgroundImageFix" stdDeviation="12"/>
<feComposite in2="SourceAlpha" operator="in" result="effect1_backgroundBlur_352_112"/>
<feBlend mode="normal" in="SourceGraphic" in2="effect1_backgroundBlur_352_112" result="shape"/>
</filter>
</defs>
</svg>
