<svg width="322" height="228" viewBox="0 0 322 228" fill="none" xmlns="http://www.w3.org/2000/svg">
<path d="M0 194.714H322" stroke="white" stroke-opacity="0.4" stroke-dasharray="4 4"/>
<path d="M0 179.714H322" stroke="white" stroke-opacity="0.4" stroke-dasharray="4 4"/>
<path d="M0 30.7136H322" stroke="white" stroke-opacity="0.4" stroke-dasharray="4 4"/>
<path d="M0 45.7136H322" stroke="white" stroke-opacity="0.4" stroke-dasharray="4 4"/>
<path d="M25 0.713623L183 225.714" stroke="white" stroke-opacity="0.4" stroke-dasharray="4 4"/>
<path d="M42.4999 0.713623L201 225.214" stroke="white" stroke-opacity="0.4" stroke-dasharray="4 4"/>
<path d="M66 0.713623L66 227.714" stroke="white" stroke-opacity="0.4" stroke-dasharray="4 4"/>
<path d="M52 0.713623L52 227.714" stroke="white" stroke-opacity="0.4" stroke-dasharray="4 4"/>
<path d="M188.5 45.7137C187.821 45.7137 187.145 45.7238 186.472 45.7438L186.487 46.2436C185.14 46.2836 183.803 46.3637 182.478 46.4827L182.433 45.9847C181.082 46.1059 179.743 46.2673 178.417 46.4675L178.491 46.9619C177.16 47.1628 175.842 47.4033 174.538 47.6819L174.433 47.1929C173.108 47.4762 171.797 47.7986 170.501 48.159L170.635 48.6407C169.34 49.0009 168.062 49.3994 166.8 49.8348L166.637 49.3621C165.357 49.8035 164.096 50.2825 162.853 50.7979L163.045 51.2597C161.804 51.774 160.583 52.3247 159.382 52.9105L159.163 52.4611C157.948 53.054 156.753 53.6826 155.58 54.3455L155.826 54.7808C154.658 55.4408 153.513 56.1351 152.39 56.8623L152.118 56.4427C150.984 57.1772 149.874 57.9449 148.789 58.7447L149.086 59.1472C148.007 59.9424 146.953 60.7694 145.925 61.6268L145.605 61.2429C144.568 62.1077 143.558 63.0032 142.576 63.928L142.919 64.292C141.944 65.2103 140.997 66.1576 140.078 67.1327L139.714 66.79C138.79 67.7721 137.894 68.7821 137.029 69.8186L137.413 70.139C136.556 71.1667 135.729 72.2208 134.933 73.2997L134.531 73.0031C133.731 74.0881 132.963 75.1982 132.229 76.3318L132.649 76.6037C131.921 77.7262 131.227 78.872 130.567 80.0398L130.132 79.7937C129.469 80.9666 128.84 82.1614 128.247 83.3768L128.697 83.596C128.111 84.7969 127.56 86.0181 127.046 87.2583L126.584 87.0667C126.069 88.3095 125.59 89.5711 125.148 90.8503L125.621 91.0134C125.186 92.2752 124.787 93.5541 124.427 94.849L123.945 94.715C123.585 96.0102 123.262 97.3212 122.979 98.6468L123.468 98.7512C123.19 100.055 122.949 101.374 122.748 102.705L122.254 102.63C122.054 103.957 121.892 105.296 121.771 106.647L122.269 106.691C122.15 108.017 122.07 109.353 122.03 110.7L121.53 110.685C121.51 111.359 121.5 112.035 121.5 112.714C121.5 113.392 121.51 114.068 121.53 114.742L122.03 114.727C122.07 116.074 122.15 117.41 122.269 118.736L121.771 118.781C121.892 120.131 122.054 121.471 122.254 122.797L122.748 122.722C122.949 124.054 123.19 125.372 123.468 126.676L122.979 126.781C123.262 128.106 123.585 129.417 123.945 130.712L124.427 130.578C124.787 131.873 125.186 133.152 125.621 134.414L125.148 134.577C125.59 135.856 126.069 137.118 126.584 138.361L127.046 138.169C127.56 139.409 128.111 140.63 128.697 141.831L128.247 142.051C128.84 143.266 129.469 144.461 130.132 145.634L130.567 145.388C131.227 146.555 131.921 147.701 132.649 148.824L132.229 149.095C132.963 150.229 133.731 151.339 134.531 152.424L134.933 152.128C135.729 153.207 136.556 154.261 137.413 155.288L137.029 155.609C137.894 156.645 138.79 157.655 139.714 158.637L140.078 158.295C140.997 159.27 141.944 160.217 142.919 161.135L142.576 161.499C143.558 162.424 144.568 163.32 145.605 164.184L145.925 163.8C146.953 164.658 148.007 165.485 149.086 166.28L148.789 166.683C149.874 167.482 150.985 168.25 152.118 168.985L152.39 168.565C153.513 169.292 154.658 169.987 155.826 170.647L155.58 171.082C156.753 171.745 157.948 172.373 159.163 172.966L159.382 172.517C160.583 173.103 161.804 173.653 163.045 174.168L162.853 174.629C164.096 175.145 165.357 175.624 166.637 176.065L166.8 175.593C168.062 176.028 169.34 176.426 170.635 176.787L170.501 177.268C171.797 177.629 173.108 177.951 174.433 178.234L174.538 177.745C175.842 178.024 177.16 178.264 178.491 178.465L178.417 178.96C179.743 179.16 181.082 179.321 182.433 179.443L182.478 178.945C183.803 179.064 185.14 179.144 186.487 179.184L186.472 179.683C187.145 179.704 187.821 179.714 188.5 179.714C189.178 179.714 189.855 179.704 190.528 179.683L190.513 179.184C191.86 179.144 193.197 179.064 194.522 178.945L194.567 179.443C195.918 179.321 197.257 179.16 198.583 178.96L198.509 178.465C199.84 178.264 201.158 178.024 202.462 177.745L202.567 178.234C203.892 177.951 205.203 177.629 206.499 177.268L206.365 176.787C207.659 176.426 208.938 176.028 210.2 175.593L210.363 176.065C211.642 175.624 212.904 175.145 214.147 174.629L213.955 174.168C215.196 173.653 216.417 173.103 217.618 172.517L217.837 172.966C219.052 172.373 220.247 171.745 221.42 171.082L221.174 170.647C222.342 169.987 223.487 169.292 224.61 168.565L224.882 168.985C226.015 168.25 227.126 167.482 228.211 166.683L227.914 166.28C228.993 165.485 230.047 164.658 231.075 163.8L231.395 164.184C232.432 163.32 233.442 162.424 234.424 161.499L234.081 161.135C235.056 160.217 236.003 159.27 236.922 158.295L237.286 158.637C238.21 157.655 239.106 156.645 239.971 155.609L239.587 155.288C240.444 154.261 241.271 153.207 242.066 152.128L242.469 152.424C243.269 151.339 244.036 150.229 244.771 149.095L244.351 148.824C245.079 147.701 245.773 146.555 246.433 145.388L246.868 145.634C247.531 144.461 248.16 143.266 248.753 142.051L248.303 141.831C248.889 140.63 249.44 139.409 249.954 138.169L250.416 138.361C250.931 137.118 251.41 135.856 251.852 134.577L251.379 134.414C251.814 133.152 252.213 131.873 252.573 130.578L253.055 130.712C253.415 129.417 253.737 128.106 254.021 126.781L253.532 126.676C253.81 125.372 254.051 124.054 254.252 122.722L254.746 122.797C254.946 121.471 255.108 120.131 255.229 118.781L254.731 118.736C254.85 117.41 254.93 116.074 254.97 114.727L255.47 114.742C255.49 114.068 255.5 113.392 255.5 112.714C255.5 112.035 255.49 111.359 255.47 110.685L254.97 110.7C254.93 109.353 254.85 108.017 254.731 106.691L255.229 106.647C255.108 105.296 254.946 103.957 254.746 102.63L254.252 102.705C254.051 101.374 253.81 100.055 253.532 98.7513L254.021 98.6468C253.737 97.3212 253.415 96.0102 253.055 94.715L252.573 94.849C252.213 93.5541 251.814 92.2752 251.379 91.0134L251.852 90.8503C251.41 89.5711 250.931 88.3095 250.416 87.0667L249.954 87.2583C249.44 86.0181 248.889 84.7969 248.303 83.596L248.752 83.3768C248.16 82.1613 247.531 80.9665 246.868 79.7937L246.433 80.0398C245.773 78.872 245.079 77.7262 244.351 76.6037L244.771 76.3318C244.036 75.1982 243.269 74.0881 242.469 73.0031L242.066 73.2997C241.271 72.2208 240.444 71.1667 239.587 70.1389L239.971 69.8186C239.106 68.7821 238.21 67.7721 237.286 66.79L236.922 67.1327C236.003 66.1576 235.056 65.2103 234.081 64.292L234.424 63.928C233.442 63.0032 232.432 62.1077 231.395 61.2429L231.075 61.6268C230.047 60.7694 228.993 59.9424 227.914 59.1472L228.211 58.7447C227.126 57.9449 226.015 57.1772 224.882 56.4427L224.61 56.8623C223.487 56.1351 222.342 55.4408 221.174 54.7808L221.42 54.3455C220.247 53.6826 219.052 53.054 217.837 52.4611L217.618 52.9105C216.417 52.3247 215.196 51.774 213.955 51.2597L214.147 50.7979C212.904 50.2825 211.642 49.8035 210.363 49.3621L210.2 49.8348C208.938 49.3994 207.659 49.0009 206.365 48.6407L206.499 48.159C205.203 47.7986 203.892 47.4762 202.567 47.193L202.462 47.6819C201.158 47.4033 199.84 47.1628 198.509 46.9619L198.583 46.4675C197.257 46.2673 195.918 46.1059 194.567 45.9847L194.522 46.4827C193.197 46.3637 191.86 46.2836 190.513 46.2436L190.528 45.7438C189.855 45.7238 189.178 45.7137 188.5 45.7137ZM186.469 30.2382C185.113 30.271 183.764 30.3365 182.425 30.434L182.461 30.9327C181.116 31.0305 179.781 31.1608 178.455 31.3227L178.395 30.8264C177.049 30.9908 175.713 31.1875 174.388 31.4159L174.473 31.9086C173.146 32.1373 171.83 32.398 170.525 32.6898L170.416 32.2018C169.094 32.4974 167.784 32.8248 166.487 33.183L166.62 33.6649C165.323 34.0231 164.039 34.4124 162.769 34.832L162.612 34.3572C161.327 34.7816 160.055 35.2367 158.799 35.7216L158.979 36.1881C157.725 36.6723 156.485 37.1866 155.261 37.7298L155.058 37.2729C153.822 37.8216 152.602 38.3999 151.399 39.0068L151.624 39.4532C150.424 40.0584 149.241 40.6922 148.076 41.3537L147.829 40.9188C146.654 41.5862 145.496 42.2815 144.358 43.004L144.625 43.4262C143.491 44.1458 142.376 44.8925 141.281 45.6654L140.992 45.2569C139.889 46.0357 138.805 46.841 137.742 47.6718L138.05 48.0657C136.992 48.8924 135.955 49.7445 134.939 50.6211L134.613 50.2426C133.591 51.1251 132.59 52.0322 131.613 52.9631L131.958 53.3251C130.986 54.2506 130.037 55.1997 129.111 56.1714L128.749 55.8266C127.819 56.804 126.911 57.8042 126.029 58.8264L126.407 59.1531C125.531 60.1684 124.679 61.2054 123.852 62.2632L123.458 61.9553C122.627 63.0183 121.822 64.1023 121.043 65.2061L121.452 65.4944C120.679 66.5898 119.932 67.7051 119.213 68.8391L118.79 68.5713C118.068 69.7098 117.372 70.8673 116.705 72.0428L117.14 72.2896C116.478 73.4548 115.845 74.6378 115.24 75.8377L114.793 75.6125C114.186 76.8158 113.608 78.036 113.059 79.2721L113.516 79.475C112.973 80.6988 112.459 81.9384 111.974 83.1928L111.508 83.0128C111.023 84.2691 110.568 85.5403 110.143 86.8255L110.618 86.9823C110.199 88.2527 109.809 89.537 109.451 90.8341L108.969 90.701C108.611 91.998 108.284 93.3079 107.988 94.6297L108.476 94.7388C108.184 96.0434 107.924 97.3597 107.695 98.687L107.202 98.602C106.974 99.9269 106.777 101.263 106.613 102.608L107.109 102.669C106.947 103.994 106.817 105.33 106.719 106.675L106.22 106.638C106.123 107.978 106.057 109.326 106.025 110.683L106.524 110.695C106.508 111.366 106.5 112.039 106.5 112.714C106.5 113.389 106.508 114.062 106.524 114.732L106.025 114.745C106.057 116.101 106.123 117.449 106.22 118.789L106.719 118.753C106.817 120.097 106.947 121.433 107.109 122.759L106.613 122.819C106.777 124.165 106.974 125.5 107.202 126.825L107.695 126.74C107.924 128.068 108.184 129.384 108.476 130.688L107.988 130.798C108.284 132.119 108.611 133.429 108.969 134.726L109.451 134.593C109.809 135.89 110.199 137.175 110.618 138.445L110.143 138.602C110.568 139.887 111.023 141.158 111.508 142.415L111.974 142.234C112.459 143.489 112.973 144.728 113.516 145.952L113.059 146.155C113.608 147.391 114.186 148.611 114.793 149.815L115.24 149.59C115.845 150.789 116.478 151.972 117.14 153.138L116.705 153.385C117.372 154.56 118.068 155.717 118.79 156.856L119.213 156.588C119.932 157.722 120.679 158.837 121.452 159.933L121.043 160.221C121.822 161.325 122.627 162.409 123.458 163.472L123.852 163.164C124.679 164.222 125.531 165.259 126.407 166.274L126.029 166.601C126.911 167.623 127.819 168.623 128.749 169.601L129.111 169.256C130.037 170.228 130.986 171.177 131.958 172.102L131.613 172.464C132.59 173.395 133.591 174.302 134.613 175.185L134.939 174.806C135.955 175.683 136.992 176.535 138.05 177.362L137.742 177.756C138.805 178.586 139.889 179.392 140.992 180.17L141.281 179.762C142.376 180.535 143.491 181.281 144.625 182.001L144.358 182.423C145.496 183.146 146.654 183.841 147.829 184.508L148.076 184.074C149.241 184.735 150.424 185.369 151.624 185.974L151.399 186.421C152.602 187.027 153.822 187.606 155.058 188.154L155.261 187.697C156.485 188.241 157.725 188.755 158.979 189.239L158.799 189.706C160.055 190.191 161.327 190.646 162.612 191.07L162.769 190.595C164.039 191.015 165.323 191.404 166.62 191.762L166.487 192.244C167.784 192.603 169.094 192.93 170.416 193.225L170.525 192.738C171.83 193.029 173.146 193.29 174.473 193.519L174.388 194.011C175.713 194.24 177.049 194.437 178.394 194.601L178.455 194.105C179.781 194.266 181.116 194.397 182.461 194.495L182.425 194.993C183.764 195.091 185.113 195.156 186.469 195.189L186.481 194.689C187.152 194.705 187.825 194.714 188.5 194.714C189.175 194.714 189.848 194.705 190.519 194.689L190.531 195.189C191.887 195.156 193.236 195.091 194.575 194.993L194.539 194.495C195.884 194.397 197.219 194.266 198.545 194.105L198.605 194.601C199.951 194.437 201.287 194.24 202.612 194.011L202.527 193.519C203.854 193.29 205.17 193.029 206.475 192.738L206.584 193.225C207.906 192.93 209.216 192.603 210.513 192.244L210.38 191.762C211.677 191.404 212.961 191.015 214.231 190.595L214.388 191.07C215.673 190.646 216.944 190.191 218.201 189.706L218.021 189.239C219.275 188.755 220.515 188.241 221.739 187.697L221.941 188.154C223.178 187.606 224.398 187.027 225.601 186.421L225.376 185.974C226.576 185.369 227.759 184.735 228.924 184.074L229.171 184.508C230.346 183.841 231.504 183.146 232.642 182.423L232.374 182.001C233.509 181.281 234.624 180.535 235.719 179.762L236.007 180.17C237.111 179.392 238.195 178.586 239.258 177.756L238.95 177.362C240.008 176.535 241.045 175.683 242.061 174.806L242.387 175.185C243.409 174.302 244.41 173.395 245.387 172.464L245.042 172.102C246.014 171.177 246.963 170.228 247.889 169.256L248.251 169.601C249.181 168.623 250.089 167.623 250.971 166.601L250.593 166.274C251.469 165.259 252.321 164.222 253.148 163.164L253.542 163.472C254.373 162.409 255.178 161.325 255.957 160.221L255.548 159.933C256.321 158.837 257.068 157.722 257.787 156.588L258.21 156.856C258.932 155.717 259.627 154.56 260.295 153.385L259.86 153.138C260.521 151.972 261.155 150.789 261.76 149.59L262.207 149.815C262.814 148.611 263.392 147.391 263.941 146.155L263.484 145.952C264.027 144.728 264.541 143.489 265.026 142.234L265.492 142.415C265.977 141.158 266.432 139.887 266.856 138.602L266.382 138.445C266.801 137.175 267.191 135.89 267.549 134.593L268.031 134.726C268.389 133.429 268.716 132.119 269.012 130.798L268.524 130.688C268.816 129.384 269.076 128.068 269.305 126.74L269.798 126.825C270.026 125.5 270.223 124.165 270.387 122.819L269.891 122.759C270.053 121.433 270.183 120.097 270.281 118.753L270.78 118.789C270.877 117.449 270.943 116.101 270.975 114.745L270.476 114.733C270.492 114.062 270.5 113.389 270.5 112.714C270.5 112.039 270.492 111.366 270.476 110.695L270.975 110.683C270.943 109.326 270.877 107.978 270.78 106.638L270.281 106.675C270.183 105.33 270.053 103.995 269.891 102.669L270.387 102.608C270.223 101.263 270.026 99.9269 269.798 98.6021L269.305 98.687C269.076 97.3597 268.816 96.0434 268.524 94.7389L269.012 94.6297C268.716 93.3079 268.389 91.998 268.031 90.701L267.549 90.8341C267.191 89.537 266.801 88.2528 266.382 86.9823L266.856 86.8255C266.432 85.5403 265.977 84.2691 265.492 83.0128L265.026 83.1929C264.541 81.9384 264.027 80.6988 263.484 79.475L263.941 79.2721C263.392 78.036 262.814 76.8158 262.207 75.6125L261.76 75.8377C261.155 74.6378 260.521 73.4548 259.86 72.2896L260.295 72.0428C259.627 70.8673 258.932 69.7098 258.21 68.5713L257.787 68.8392C257.068 67.7051 256.321 66.5899 255.548 65.4944L255.957 65.2062C255.178 64.1023 254.373 63.0184 253.542 61.9553L253.148 62.2632C252.321 61.2054 251.469 60.1684 250.593 59.1531L250.971 58.8264C250.089 57.8042 249.181 56.804 248.251 55.8266L247.888 56.1714C246.963 55.1997 246.014 54.2506 245.042 53.3251L245.387 52.9631C244.41 52.0322 243.409 51.1251 242.387 50.2426L242.061 50.6211C241.045 49.7445 240.008 48.8924 238.95 48.0657L239.258 47.6718C238.195 46.841 237.111 46.0358 236.007 45.2569L235.719 45.6654C234.624 44.8926 233.509 44.1458 232.374 43.4262L232.642 43.004C231.504 42.2815 230.346 41.5862 229.171 40.9188L228.924 41.3537C227.759 40.6922 226.576 40.0584 225.376 39.4532L225.601 39.0068C224.398 38.3999 223.178 37.8217 221.942 37.2729L221.739 37.7299C220.515 37.1866 219.275 36.6723 218.021 36.1881L218.201 35.7216C216.945 35.2367 215.673 34.7816 214.388 34.3572L214.231 34.832C212.961 34.4124 211.677 34.0231 210.38 33.6649L210.513 33.183C209.216 32.8248 207.906 32.4974 206.584 32.2018L206.475 32.6898C205.17 32.398 203.854 32.1374 202.527 31.9086L202.612 31.4159C201.287 31.1875 199.951 30.9908 198.605 30.8264L198.545 31.3227C197.219 31.1608 195.884 31.0305 194.539 30.9327L194.575 30.434C193.236 30.3365 191.887 30.271 190.531 30.2382L190.519 30.738C189.848 30.7218 189.175 30.7137 188.5 30.7137C187.825 30.7137 187.152 30.7218 186.481 30.738L186.469 30.2382Z" stroke="white" stroke-dasharray="4 4"/>
<path d="M165.143 95.035C165.143 94.3858 165.13 93.7394 165.105 93.0962L164.606 93.1155C164.556 91.828 164.456 90.5532 164.309 89.2932L164.805 89.235C164.654 87.9441 164.453 86.6684 164.204 85.4099L163.714 85.507C163.464 84.2457 163.166 83.0018 162.821 81.7775L163.303 81.642C162.951 80.3937 162.552 79.1654 162.107 77.9593L161.638 78.1324C161.193 76.9287 160.703 75.7472 160.169 74.5902L160.623 74.3806C160.08 73.205 159.492 72.0545 158.862 70.9311L158.426 71.1758C157.799 70.059 157.129 68.9694 156.42 67.9091L156.835 67.6309C156.116 66.5564 155.355 65.5118 154.556 64.4992L154.164 64.809C153.371 63.8051 152.54 62.833 151.672 61.895L152.039 61.5555C151.163 60.6074 150.249 59.6938 149.301 58.817L148.961 59.1841C148.023 58.3166 147.051 57.4855 146.047 56.6929L146.357 56.3005C145.345 55.5012 144.3 54.7407 143.226 54.0214L142.947 54.4368C141.887 53.727 140.797 53.0576 139.681 52.4308L139.925 51.9948C138.802 51.3643 137.651 50.7766 136.476 50.2337L136.266 50.6877C135.109 50.1534 133.928 49.663 132.724 49.2188L132.897 48.7497C131.691 48.3046 130.463 47.9053 129.214 47.5539L129.079 48.0352C127.855 47.6905 126.611 47.3924 125.35 47.1429L125.447 46.6524C124.188 46.4034 122.912 46.2023 121.621 46.0511L121.563 46.5477C120.303 46.4001 119.028 46.3004 117.741 46.2507L117.76 45.751C117.117 45.7262 116.471 45.7136 115.821 45.7136C115.172 45.7136 114.526 45.7262 113.883 45.751L113.902 46.2507C112.614 46.3004 111.34 46.4001 110.08 46.5477L110.021 46.0511C108.73 46.2023 107.455 46.4034 106.196 46.6524L106.293 47.1429C105.032 47.3924 103.788 47.6905 102.564 48.0352L102.428 47.5539C101.18 47.9053 99.9518 48.3046 98.7457 48.7497L98.9188 49.2188C97.715 49.663 96.5336 50.1534 95.3766 50.6877L95.167 50.2337C93.9914 50.7766 92.8409 51.3643 91.7175 51.9948L91.9622 52.4308C90.8454 53.0576 89.7558 53.727 88.6955 54.4368L88.4173 54.0214C87.3428 54.7407 86.2982 55.5012 85.2856 56.3005L85.5954 56.6929C84.5915 57.4855 83.6194 58.3166 82.6814 59.1841L82.3419 58.817C81.3938 59.6938 80.4802 60.6074 79.6034 61.5555L79.9704 61.895C79.103 62.833 78.2718 63.8051 77.4793 64.809L77.0869 64.4992C76.2876 65.5118 75.5271 66.5564 74.8077 67.6309L75.2232 67.9091C74.5134 68.9694 73.844 70.059 73.2172 71.1758L72.7812 70.9311C72.1507 72.0545 71.563 73.205 71.0201 74.3806L71.474 74.5902C70.9398 75.7472 70.4494 76.9286 70.0052 78.1324L69.5361 77.9593C69.091 79.1654 68.6917 80.3937 68.3403 81.642L68.8216 81.7775C68.4769 83.0018 68.1788 84.2456 67.9293 85.5069L67.4388 85.4099C67.1898 86.6684 66.9887 87.9441 66.8375 89.235L67.3341 89.2932C67.1865 90.5532 67.0868 91.828 67.037 93.1155L66.5374 93.0962C66.5125 93.7394 66.5 94.3858 66.5 95.035C66.5 95.6843 66.5125 96.3307 66.5374 96.9739L67.037 96.9546C67.0868 98.2421 67.1865 99.5168 67.3341 100.777L66.8375 100.835C66.9887 102.126 67.1898 103.402 67.4388 104.66L67.9293 104.563C68.1788 105.824 68.4769 107.068 68.8216 108.293L68.3403 108.428C68.6917 109.676 69.091 110.905 69.5361 112.111L70.0052 111.938C70.4494 113.141 70.9398 114.323 71.474 115.48L71.0201 115.689C71.563 116.865 72.1507 118.016 72.7811 119.139L73.2172 118.894C73.844 120.011 74.5134 121.101 75.2232 122.161L74.8077 122.439C75.5271 123.514 76.2876 124.558 77.0869 125.571L77.4793 125.261C78.2718 126.265 79.103 127.237 79.9704 128.175L79.6034 128.515C80.4802 129.463 81.3938 130.376 82.3419 131.253L82.6814 130.886C83.6194 131.753 84.5915 132.585 85.5954 133.377L85.2856 133.77C86.2982 134.569 87.3428 135.329 88.4173 136.049L88.6955 135.633C89.7558 136.343 90.8454 137.012 91.9622 137.639L91.7175 138.075C92.8408 138.706 93.9914 139.293 95.167 139.836L95.3766 139.382C96.5336 139.917 97.715 140.407 98.9188 140.851L98.7457 141.32C99.9518 141.765 101.18 142.165 102.428 142.516L102.564 142.035C103.788 142.38 105.032 142.678 106.293 142.927L106.196 143.418C107.455 143.667 108.73 143.868 110.021 144.019L110.08 143.522C111.34 143.67 112.614 143.77 113.902 143.819L113.883 144.319C114.526 144.344 115.172 144.356 115.821 144.356C116.471 144.356 117.117 144.344 117.76 144.319L117.741 143.819C119.028 143.77 120.303 143.67 121.563 143.522L121.621 144.019C122.912 143.868 124.188 143.667 125.447 143.418L125.349 142.927C126.611 142.678 127.855 142.38 129.079 142.035L129.214 142.516C130.463 142.165 131.691 141.765 132.897 141.32L132.724 140.851C133.928 140.407 135.109 139.917 136.266 139.382L136.476 139.836C137.651 139.293 138.802 138.706 139.925 138.075L139.681 137.639C140.797 137.012 141.887 136.343 142.947 135.633L143.226 136.049C144.3 135.329 145.345 134.569 146.357 133.77L146.047 133.377C147.051 132.585 148.023 131.753 148.961 130.886L149.301 131.253C150.249 130.376 151.163 129.463 152.039 128.515L151.672 128.175C152.54 127.237 153.371 126.265 154.164 125.261L154.556 125.571C155.355 124.558 156.116 123.514 156.835 122.439L156.42 122.161C157.129 121.101 157.799 120.011 158.426 118.894L158.862 119.139C159.492 118.016 160.08 116.865 160.623 115.689L160.169 115.48C160.703 114.323 161.193 113.141 161.638 111.938L162.107 112.111C162.552 110.905 162.951 109.676 163.303 108.428L162.821 108.293C163.166 107.068 163.464 105.824 163.714 104.563L164.204 104.66C164.453 103.402 164.654 102.126 164.805 100.835L164.309 100.777C164.456 99.5168 164.556 98.2421 164.606 96.9546L165.105 96.9739C165.13 96.3307 165.143 95.6843 165.143 95.035ZM180.614 93.0724C180.575 91.7597 180.497 90.4568 180.381 89.1648L179.883 89.2095C179.766 87.9127 179.611 86.627 179.419 85.3536L179.913 85.279C179.718 83.9813 179.483 82.6963 179.212 81.4251L178.723 81.5295C178.451 80.2571 178.141 78.9987 177.795 77.7554L178.277 77.6213C177.926 76.3591 177.538 75.1125 177.113 73.8826L176.64 74.0456C176.217 72.8177 175.757 71.6067 175.262 70.4137L175.724 70.2222C175.223 69.0134 174.686 67.823 174.115 66.6523L173.666 66.8716C173.096 65.7048 172.493 64.5578 171.857 63.4319L172.292 63.1859C171.649 62.0476 170.972 60.9307 170.263 59.8366L169.843 60.1084C169.138 59.0201 168.401 57.9543 167.633 56.9126L168.036 56.616C167.261 55.5643 166.455 54.5368 165.619 53.535L165.235 53.8553C164.404 52.8601 163.545 51.8904 162.657 50.9474L163.021 50.6047C162.126 49.6542 161.202 48.7307 160.252 47.8357L159.909 48.1997C158.966 47.3117 157.996 46.4519 157.001 45.6217L157.321 45.2377C156.32 44.4019 155.292 43.5958 154.24 42.8206L153.944 43.2231C152.902 42.4553 151.836 41.7182 150.748 41.0131L151.02 40.5935C149.926 39.8846 148.809 39.2078 147.671 38.5645L147.425 38.9997C146.299 38.3634 145.152 37.76 143.985 37.1908L144.204 36.7414C143.033 36.1704 141.843 35.6336 140.634 35.1323L140.443 35.5942C139.25 35.0995 138.039 34.6396 136.811 34.2159L136.974 33.7433C135.744 33.3189 134.497 32.9305 133.235 32.5793L133.101 33.061C131.858 32.7151 130.599 32.4056 129.327 32.1338L129.431 31.6448C128.16 31.3732 126.875 31.1388 125.577 30.9429L125.503 31.4373C124.229 31.2451 122.944 31.0902 121.647 30.9738L121.692 30.4758C120.4 30.3599 119.097 30.2818 117.784 30.2428L117.769 30.7425C117.122 30.7233 116.473 30.7136 115.821 30.7136C115.17 30.7136 114.521 30.7233 113.874 30.7425L113.859 30.2428C112.546 30.2818 111.243 30.3599 109.951 30.4758L109.996 30.9738C108.699 31.0902 107.413 31.2451 106.14 31.4374L106.065 30.943C104.768 31.1388 103.483 31.3732 102.211 31.6448L102.316 32.1338C101.043 32.4056 99.785 32.7151 98.5417 33.061L98.4077 32.5793C97.1455 32.9305 95.8988 33.3189 94.6689 33.7433L94.832 34.216C93.6041 34.6396 92.393 35.0995 91.2001 35.5942L91.0086 35.1323C89.7997 35.6336 88.6093 36.1704 87.4387 36.7414L87.6579 37.1908C86.4912 37.76 85.3442 38.3634 84.2183 38.9998L83.9723 38.5645C82.834 39.2078 81.7171 39.8846 80.6229 40.5935L80.8948 41.0131C79.8064 41.7182 78.7407 42.4554 77.699 43.2231L77.4023 42.8206C76.3506 43.5958 75.3232 44.4019 74.3214 45.2377L74.6417 45.6217C73.6465 46.4519 72.6767 47.3117 71.7338 48.1997L71.391 47.8357C70.4405 48.7307 69.5171 49.6542 68.622 50.6047L68.986 50.9475C68.0981 51.8904 67.2383 52.8601 66.408 53.8553L66.0241 53.535C65.1883 54.5368 64.3821 55.5643 63.607 56.616L64.0095 56.9126C63.2417 57.9544 62.5046 59.0201 61.7995 60.1084L61.3799 59.8366C60.671 60.9307 59.9942 62.0476 59.3508 63.1859L59.7861 63.4319C59.1497 64.5578 58.5463 65.7048 57.9772 66.8716L57.5278 66.6524C56.9568 67.823 56.42 69.0134 55.9187 70.2222L56.3805 70.4137C55.8858 71.6067 55.426 72.8178 55.0023 74.0457L54.5297 73.8826C54.1053 75.1125 53.7169 76.3592 53.3657 77.6214L53.8474 77.7554C53.5015 78.9987 53.192 80.2571 52.9201 81.5296L52.4312 81.4251C52.1595 82.6963 51.9252 83.9814 51.7293 85.279L52.2237 85.3536C52.0315 86.627 51.8766 87.9127 51.7602 89.2095L51.2622 89.1648C51.1462 90.4568 51.0682 91.7597 51.0291 93.0724L51.5289 93.0873C51.5097 93.7342 51.5 94.3835 51.5 95.035C51.5 95.6866 51.5097 96.3359 51.5289 96.9828L51.0291 96.9977C51.0682 98.3104 51.1462 99.6133 51.2622 100.905L51.7602 100.861C51.8766 102.157 52.0315 103.443 52.2237 104.716L51.7293 104.791C51.9252 106.089 52.1596 107.374 52.4312 108.645L52.9201 108.541C53.192 109.813 53.5015 111.071 53.8474 112.315L53.3657 112.449C53.7169 113.711 54.1053 114.958 54.5297 116.188L55.0023 116.024C55.426 117.252 55.8858 118.463 56.3805 119.656L55.9187 119.848C56.42 121.057 56.9568 122.247 57.5278 123.418L57.9772 123.199C58.5463 124.365 59.1498 125.512 59.7861 126.638L59.3508 126.884C59.9942 128.022 60.671 129.139 61.3799 130.234L61.7995 129.962C62.5046 131.05 63.2417 132.116 64.0095 133.157L63.607 133.454C64.3822 134.506 65.1883 135.533 66.0241 136.535L66.408 136.215C67.2383 137.21 68.0981 138.18 68.986 139.123L68.622 139.465C69.5171 140.416 70.4406 141.339 71.391 142.234L71.7338 141.87C72.6768 142.758 73.6465 143.618 74.6417 144.448L74.3214 144.832C75.3232 145.668 76.3506 146.474 77.4023 147.249L77.699 146.847C78.7407 147.615 79.8064 148.352 80.8948 149.057L80.6229 149.477C81.7171 150.185 82.834 150.862 83.9723 151.506L84.2183 151.07C85.3442 151.707 86.4912 152.31 87.6579 152.879L87.4387 153.329C88.6094 153.9 89.7997 154.436 91.0086 154.938L91.2001 154.476C92.3931 154.971 93.6041 155.43 94.832 155.854L94.6689 156.327C95.8989 156.751 97.1455 157.14 98.4077 157.491L98.5418 157.009C99.7851 157.355 101.044 157.664 102.316 157.936L102.211 158.425C103.483 158.697 104.768 158.931 106.065 159.127L106.14 158.633C107.413 158.825 108.699 158.98 109.996 159.096L109.951 159.594C111.243 159.71 112.546 159.788 113.859 159.827L113.874 159.328C114.521 159.347 115.17 159.356 115.821 159.356C116.473 159.356 117.122 159.347 117.769 159.328L117.784 159.827C119.097 159.788 120.4 159.71 121.692 159.594L121.647 159.096C122.944 158.98 124.229 158.825 125.503 158.633L125.577 159.127C126.875 158.931 128.16 158.697 129.431 158.425L129.327 157.936C130.599 157.664 131.858 157.355 133.101 157.009L133.235 157.491C134.497 157.14 135.744 156.751 136.974 156.327L136.811 155.854C138.039 155.43 139.25 154.971 140.443 154.476L140.634 154.938C141.843 154.436 143.033 153.9 144.204 153.329L143.985 152.879C145.152 152.31 146.299 151.707 147.425 151.07L147.671 151.506C148.809 150.862 149.926 150.185 151.02 149.477L150.748 149.057C151.836 148.352 152.902 147.615 153.944 146.847L154.24 147.249C155.292 146.474 156.32 145.668 157.321 144.832L157.001 144.448C157.996 143.618 158.966 142.758 159.909 141.87L160.252 142.234C161.202 141.339 162.126 140.416 163.021 139.465L162.657 139.123C163.545 138.18 164.405 137.21 165.235 136.215L165.619 136.535C166.455 135.533 167.261 134.506 168.036 133.454L167.633 133.157C168.401 132.116 169.138 131.05 169.843 129.962L170.263 130.233C170.972 129.139 171.649 128.022 172.292 126.884L171.857 126.638C172.493 125.512 173.096 124.365 173.666 123.198L174.115 123.418C174.686 122.247 175.223 121.057 175.724 119.848L175.262 119.656C175.757 118.463 176.217 117.252 176.64 116.024L177.113 116.188C177.538 114.958 177.926 113.711 178.277 112.449L177.795 112.315C178.141 111.071 178.451 109.813 178.723 108.54L179.212 108.645C179.483 107.374 179.718 106.089 179.913 104.791L179.419 104.716C179.611 103.443 179.766 102.157 179.883 100.861L180.381 100.905C180.497 99.6133 180.575 98.3104 180.614 96.9976L180.114 96.9828C180.133 96.3359 180.143 95.6866 180.143 95.035C180.143 94.3835 180.133 93.7342 180.114 93.0873L180.614 93.0724Z" stroke="white" stroke-dasharray="4 4"/>
<g filter="url(#filter0_b_352_125)">
<mask id="path-11-inside-1_352_125" fill="white">
<path fill-rule="evenodd" clip-rule="evenodd" d="M126.17 145.789L140.928 136.917C155.172 128.355 164.643 112.793 164.643 95.035C164.643 68.0717 142.785 46.2136 115.821 46.2136C88.8581 46.2136 67 68.0717 67 95.035L67 95.1031V179.214H149.764L126.17 145.789ZM180.643 195.214H62C58.1497 195.214 56.2245 195.214 54.7539 194.464C53.4602 193.805 52.4085 192.753 51.7494 191.46C51 189.989 51 188.064 51 184.214L51 95.035C51 59.2351 80.0215 30.2136 115.821 30.2136C151.621 30.2136 180.643 59.2351 180.643 95.035C180.643 115.22 171.416 133.251 156.951 145.139C154.501 147.152 151.902 148.989 149.172 150.63L180.643 195.214ZM58.7903 179.173C58.7834 179.173 58.7799 179.172 58.7801 179.172C58.7802 179.173 58.7827 179.173 58.7875 179.173M67.0403 187.423C67.0415 187.436 67.0415 187.437 67.0406 187.426C67.0405 187.425 67.0404 187.424 67.0403 187.423Z"/>
</mask>
<path fill-rule="evenodd" clip-rule="evenodd" d="M126.17 145.789L140.928 136.917C155.172 128.355 164.643 112.793 164.643 95.035C164.643 68.0717 142.785 46.2136 115.821 46.2136C88.8581 46.2136 67 68.0717 67 95.035L67 95.1031V179.214H149.764L126.17 145.789ZM180.643 195.214H62C58.1497 195.214 56.2245 195.214 54.7539 194.464C53.4602 193.805 52.4085 192.753 51.7494 191.46C51 189.989 51 188.064 51 184.214L51 95.035C51 59.2351 80.0215 30.2136 115.821 30.2136C151.621 30.2136 180.643 59.2351 180.643 95.035C180.643 115.22 171.416 133.251 156.951 145.139C154.501 147.152 151.902 148.989 149.172 150.63L180.643 195.214ZM58.7903 179.173C58.7834 179.173 58.7799 179.172 58.7801 179.172C58.7802 179.173 58.7827 179.173 58.7875 179.173M67.0403 187.423C67.0415 187.436 67.0415 187.437 67.0406 187.426C67.0405 187.425 67.0404 187.424 67.0403 187.423Z" fill="#BACAE6" fill-opacity="0.2"/>
<path fill-rule="evenodd" clip-rule="evenodd" d="M126.17 145.789L140.928 136.917C155.172 128.355 164.643 112.793 164.643 95.035C164.643 68.0717 142.785 46.2136 115.821 46.2136C88.8581 46.2136 67 68.0717 67 95.035L67 95.1031V179.214H149.764L126.17 145.789ZM180.643 195.214H62C58.1497 195.214 56.2245 195.214 54.7539 194.464C53.4602 193.805 52.4085 192.753 51.7494 191.46C51 189.989 51 188.064 51 184.214L51 95.035C51 59.2351 80.0215 30.2136 115.821 30.2136C151.621 30.2136 180.643 59.2351 180.643 95.035C180.643 115.22 171.416 133.251 156.951 145.139C154.501 147.152 151.902 148.989 149.172 150.63L180.643 195.214ZM58.7903 179.173C58.7834 179.173 58.7799 179.172 58.7801 179.172C58.7802 179.173 58.7827 179.173 58.7875 179.173M67.0403 187.423C67.0415 187.436 67.0415 187.437 67.0406 187.426C67.0405 187.425 67.0404 187.424 67.0403 187.423Z" stroke="white" stroke-width="2" mask="url(#path-11-inside-1_352_125)"/>
</g>
<g filter="url(#filter1_b_352_125)">
<path fill-rule="evenodd" clip-rule="evenodd" d="M183.033 46.4351C184.836 46.2884 186.659 46.2136 188.5 46.2136C225.227 46.2136 255 75.9867 255 112.714C255 149.44 225.227 179.214 188.5 179.214C188.17 179.214 187.842 179.211 187.513 179.206L198.398 194.626C239.295 189.736 271 154.928 271 112.714C271 67.1501 234.063 30.2136 188.5 30.2136C181.839 30.2136 175.363 31.003 169.159 32.4933C174.318 36.5726 178.978 41.2554 183.033 46.4351Z" fill="#BACAE6" fill-opacity="0.2"/>
<path d="M188.5 45.7136C186.737 45.7136 184.99 45.7817 183.261 45.9155C179.434 41.0587 175.076 36.6398 170.275 32.7462C176.136 31.416 182.235 30.7136 188.5 30.7136C233.787 30.7136 270.5 67.4262 270.5 112.714C270.5 154.57 239.139 189.102 198.634 194.094L188.483 179.714C188.489 179.714 188.494 179.714 188.5 179.714C225.503 179.714 255.5 149.717 255.5 112.714C255.5 75.7105 225.503 45.7136 188.5 45.7136Z" stroke="white"/>
</g>
<defs>
<filter id="filter0_b_352_125" x="39" y="18.2136" width="153.643" height="189" filterUnits="userSpaceOnUse" color-interpolation-filters="sRGB">
<feFlood flood-opacity="0" result="BackgroundImageFix"/>
<feGaussianBlur in="BackgroundImageFix" stdDeviation="6"/>
<feComposite in2="SourceAlpha" operator="in" result="effect1_backgroundBlur_352_125"/>
<feBlend mode="normal" in="SourceGraphic" in2="effect1_backgroundBlur_352_125" result="shape"/>
</filter>
<filter id="filter1_b_352_125" x="157.159" y="18.2136" width="125.841" height="188.412" filterUnits="userSpaceOnUse" color-interpolation-filters="sRGB">
<feFlood flood-opacity="0" result="BackgroundImageFix"/>
<feGaussianBlur in="BackgroundImageFix" stdDeviation="6"/>
<feComposite in2="SourceAlpha" operator="in" result="effect1_backgroundBlur_352_125"/>
<feBlend mode="normal" in="SourceGraphic" in2="effect1_backgroundBlur_352_125" result="shape"/>
</filter>
</defs>
</svg>
