<svg width="322" height="228" viewBox="0 0 322 228" fill="none" xmlns="http://www.w3.org/2000/svg">
<path d="M0 195H322" stroke="#1E293B" stroke-opacity="0.4" stroke-dasharray="4 4"/>
<path d="M0 180H322" stroke="#1E293B" stroke-opacity="0.4" stroke-dasharray="4 4"/>
<path d="M0 31H322" stroke="#1E293B" stroke-opacity="0.4" stroke-dasharray="4 4"/>
<path d="M0 46H322" stroke="#1E293B" stroke-opacity="0.4" stroke-dasharray="4 4"/>
<path d="M25 1L183 226" stroke="#1E293B" stroke-opacity="0.4" stroke-dasharray="4 4"/>
<path d="M42.5 1L201 225.5" stroke="#1E293B" stroke-opacity="0.4" stroke-dasharray="4 4"/>
<path d="M66 1L66 228" stroke="#1E293B" stroke-opacity="0.4" stroke-dasharray="4 4"/>
<path d="M52 1L52 228" stroke="#1E293B" stroke-opacity="0.4" stroke-dasharray="4 4"/>
<path d="M188.5 46.0001C187.821 46.0001 187.145 46.0101 186.472 46.0302L186.487 46.5299C185.14 46.57 183.803 46.6501 182.478 46.7691L182.433 46.2711C181.082 46.3923 179.743 46.5536 178.417 46.7539L178.491 47.2483C177.16 47.4492 175.842 47.6896 174.538 47.9683L174.433 47.4793C173.108 47.7625 171.797 48.085 170.501 48.4453L170.635 48.927C169.34 49.2873 168.062 49.6858 166.8 50.1211L166.637 49.6485C165.357 50.0899 164.096 50.5689 162.853 51.0842L163.045 51.5461C161.804 52.0604 160.583 52.6111 159.382 53.1969L159.163 52.7475C157.948 53.3404 156.753 53.969 155.58 54.6319L155.826 55.0672C154.658 55.7272 153.513 56.4215 152.39 57.1487L152.118 56.7291C150.984 57.4635 149.874 58.2313 148.789 59.031L149.086 59.4335C148.007 60.2288 146.953 61.0558 145.925 61.9132L145.605 61.5293C144.568 62.3941 143.558 63.2896 142.576 64.2144L142.919 64.5784C141.944 65.4967 140.997 66.444 140.078 67.4191L139.714 67.0764C138.79 68.0584 137.894 69.0685 137.029 70.105L137.413 70.4253C136.556 71.4531 135.729 72.5072 134.933 73.5861L134.531 73.2894C133.731 74.3745 132.963 75.4846 132.229 76.6182L132.649 76.8901C131.921 78.0126 131.227 79.1584 130.567 80.3261L130.132 80.0801C129.469 81.2529 128.84 82.4477 128.247 83.6632L128.697 83.8824C128.111 85.0833 127.56 86.3045 127.046 87.5446L126.584 87.3531C126.069 88.5959 125.59 89.8575 125.148 91.1367L125.621 91.2998C125.186 92.5616 124.787 93.8405 124.427 95.1354L123.945 95.0014C123.585 96.2966 123.262 97.6076 122.979 98.9332L123.468 99.0376C123.19 100.342 122.949 101.66 122.748 102.991L122.254 102.917C122.054 104.243 121.892 105.582 121.771 106.933L122.269 106.978C122.15 108.303 122.07 109.64 122.03 110.987L121.53 110.972C121.51 111.645 121.5 112.322 121.5 113C121.5 113.679 121.51 114.355 121.53 115.028L122.03 115.013C122.07 116.36 122.15 117.697 122.269 119.022L121.771 119.067C121.892 120.418 122.054 121.757 122.254 123.083L122.748 123.009C122.949 124.34 123.19 125.658 123.468 126.962L122.979 127.067C123.262 128.392 123.585 129.703 123.945 130.999L124.427 130.865C124.787 132.16 125.186 133.438 125.621 134.7L125.148 134.863C125.59 136.143 126.069 137.404 126.584 138.647L127.046 138.455C127.56 139.696 128.111 140.917 128.697 142.118L128.247 142.337C128.84 143.552 129.469 144.747 130.132 145.92L130.567 145.674C131.227 146.842 131.921 147.987 132.649 149.11L132.229 149.382C132.963 150.516 133.731 151.626 134.531 152.711L134.933 152.414C135.729 153.493 136.556 154.547 137.413 155.575L137.029 155.895C137.894 156.932 138.79 157.942 139.714 158.924L140.078 158.581C140.997 159.556 141.944 160.503 142.919 161.422L142.576 161.786C143.558 162.71 144.568 163.606 145.605 164.471L145.925 164.087C146.953 164.944 148.007 165.771 149.086 166.567L148.789 166.969C149.874 167.769 150.985 168.537 152.118 169.271L152.39 168.851C153.513 169.579 154.658 170.273 155.826 170.933L155.58 171.368C156.753 172.031 157.948 172.66 159.163 173.253L159.382 172.803C160.583 173.389 161.804 173.94 163.045 174.454L162.853 174.916C164.096 175.431 165.357 175.91 166.637 176.352L166.8 175.879C168.062 176.314 169.34 176.713 170.635 177.073L170.501 177.555C171.797 177.915 173.108 178.238 174.433 178.521L174.538 178.032C175.842 178.31 177.16 178.551 178.491 178.752L178.417 179.246C179.743 179.446 181.082 179.608 182.433 179.729L182.478 179.231C183.803 179.35 185.14 179.43 186.487 179.47L186.472 179.97C187.145 179.99 187.821 180 188.5 180C189.178 180 189.855 179.99 190.528 179.97L190.513 179.47C191.86 179.43 193.197 179.35 194.522 179.231L194.567 179.729C195.918 179.608 197.257 179.446 198.583 179.246L198.509 178.752C199.84 178.551 201.158 178.31 202.462 178.032L202.567 178.521C203.892 178.238 205.203 177.915 206.499 177.555L206.365 177.073C207.659 176.713 208.938 176.314 210.2 175.879L210.363 176.352C211.642 175.91 212.904 175.431 214.147 174.916L213.955 174.454C215.196 173.94 216.417 173.389 217.618 172.803L217.837 173.253C219.052 172.66 220.247 172.031 221.42 171.368L221.174 170.933C222.342 170.273 223.487 169.579 224.61 168.851L224.882 169.271C226.015 168.537 227.126 167.769 228.211 166.969L227.914 166.567C228.993 165.771 230.047 164.944 231.075 164.087L231.395 164.471C232.432 163.606 233.442 162.71 234.424 161.786L234.081 161.422C235.056 160.503 236.003 159.556 236.922 158.581L237.286 158.924C238.21 157.942 239.106 156.932 239.971 155.895L239.587 155.575C240.444 154.547 241.271 153.493 242.066 152.414L242.469 152.711C243.269 151.626 244.036 150.515 244.771 149.382L244.351 149.11C245.079 147.987 245.773 146.842 246.433 145.674L246.868 145.92C247.531 144.747 248.16 143.552 248.753 142.337L248.303 142.118C248.889 140.917 249.44 139.696 249.954 138.455L250.416 138.647C250.931 137.404 251.41 136.143 251.852 134.863L251.379 134.7C251.814 133.438 252.213 132.16 252.573 130.865L253.055 130.999C253.415 129.703 253.737 128.392 254.021 127.067L253.532 126.962C253.81 125.658 254.051 124.34 254.252 123.009L254.746 123.083C254.946 121.757 255.108 120.418 255.229 119.067L254.731 119.022C254.85 117.697 254.93 116.36 254.97 115.013L255.47 115.028C255.49 114.355 255.5 113.679 255.5 113C255.5 112.322 255.49 111.645 255.47 110.972L254.97 110.987C254.93 109.64 254.85 108.303 254.731 106.978L255.229 106.933C255.108 105.582 254.946 104.243 254.746 102.917L254.252 102.991C254.051 101.66 253.81 100.342 253.532 99.0376L254.021 98.9332C253.737 97.6076 253.415 96.2966 253.055 95.0014L252.573 95.1354C252.213 93.8405 251.814 92.5616 251.379 91.2998L251.852 91.1367C251.41 89.8575 250.931 88.5959 250.416 87.3531L249.954 87.5446C249.44 86.3045 248.889 85.0833 248.303 83.8824L248.752 83.6631C248.16 82.4477 247.531 81.2529 246.868 80.0801L246.433 80.3261C245.773 79.1584 245.079 78.0126 244.351 76.8901L244.771 76.6182C244.036 75.4845 243.269 74.3745 242.469 73.2894L242.066 73.5861C241.271 72.5072 240.444 71.4531 239.587 70.4253L239.971 70.105C239.106 69.0685 238.21 68.0584 237.286 67.0763L236.922 67.4191C236.003 66.444 235.056 65.4967 234.081 64.5784L234.424 64.2144C233.442 63.2896 232.432 62.3941 231.395 61.5293L231.075 61.9132C230.047 61.0558 228.993 60.2287 227.914 59.4335L228.211 59.031C227.126 58.2313 226.015 57.4635 224.882 56.7291L224.61 57.1487C223.487 56.4215 222.342 55.7272 221.174 55.0671L221.42 54.6319C220.247 53.969 219.052 53.3404 217.837 52.7475L217.618 53.1969C216.417 52.6111 215.196 52.0604 213.955 51.5461L214.147 51.0843C212.904 50.5689 211.642 50.0899 210.363 49.6485L210.2 50.1211C208.938 49.6858 207.659 49.2873 206.365 48.927L206.499 48.4453C205.203 48.085 203.892 47.7626 202.567 47.4793L202.462 47.9683C201.158 47.6896 199.84 47.4492 198.509 47.2483L198.583 46.7539C197.257 46.5536 195.918 46.3923 194.567 46.2711L194.522 46.7691C193.197 46.6501 191.86 46.57 190.513 46.53L190.528 46.0302C189.855 46.0101 189.178 46.0001 188.5 46.0001ZM186.469 30.5246C185.113 30.5573 183.764 30.6228 182.425 30.7203L182.461 31.219C181.116 31.3169 179.781 31.4472 178.455 31.6091L178.395 31.1128C177.049 31.2771 175.713 31.4739 174.388 31.7022L174.473 32.195C173.146 32.4237 171.83 32.6844 170.525 32.9761L170.416 32.4882C169.094 32.7838 167.784 33.1111 166.487 33.4693L166.62 33.9513C165.323 34.3095 164.039 34.6988 162.769 35.1183L162.612 34.6436C161.327 35.0679 160.055 35.523 158.799 36.008L158.979 36.4745C157.725 36.9587 156.485 37.4729 155.261 38.0162L155.058 37.5592C153.822 38.108 152.602 38.6863 151.399 39.2931L151.624 39.7396C150.424 40.3448 149.241 40.9785 148.076 41.64L147.829 41.2052C146.654 41.8725 145.496 42.5679 144.358 43.2904L144.625 43.7126C143.491 44.4322 142.376 45.1789 141.281 45.9518L140.992 45.5433C139.889 46.3221 138.805 47.1274 137.742 47.9582L138.05 48.3521C136.992 49.1788 135.955 50.0309 134.939 50.9074L134.613 50.529C133.591 51.4114 132.59 52.3186 131.613 53.2494L131.958 53.6115C130.986 54.537 130.037 55.486 129.111 56.4578L128.749 56.113C127.819 57.0904 126.911 58.0906 126.029 59.1127L126.407 59.4395C125.531 60.4548 124.679 61.4918 123.852 62.5496L123.458 62.2417C122.627 63.3047 121.822 64.3886 121.043 65.4925L121.452 65.7808C120.679 66.8762 119.932 67.9914 119.213 69.1255L118.79 68.8576C118.068 69.9962 117.372 71.1537 116.705 72.3291L117.14 72.576C116.478 73.7412 115.845 74.9242 115.24 76.1241L114.793 75.8989C114.186 77.1022 113.608 78.3223 113.059 79.5585L113.516 79.7614C112.973 80.9852 112.459 82.2248 111.974 83.4792L111.508 83.2992C111.023 84.5555 110.568 85.8267 110.143 87.1119L110.618 87.2687C110.199 88.5391 109.809 89.8233 109.451 91.1205L108.969 90.9874C108.611 92.2844 108.284 93.5943 107.988 94.9161L108.476 95.0252C108.184 96.3298 107.924 97.6461 107.695 98.9733L107.202 98.8884C106.974 100.213 106.777 101.549 106.613 102.895L107.109 102.955C106.947 104.281 106.817 105.616 106.719 106.961L106.22 106.925C106.123 108.264 106.057 109.613 106.025 110.969L106.524 110.981C106.508 111.652 106.5 112.325 106.5 113C106.5 113.675 106.508 114.348 106.524 115.019L106.025 115.031C106.057 116.387 106.123 117.736 106.22 119.075L106.719 119.039C106.817 120.384 106.947 121.719 107.109 123.045L106.613 123.105C106.777 124.451 106.974 125.787 107.202 127.112L107.695 127.027C107.924 128.354 108.184 129.67 108.476 130.975L107.988 131.084C108.284 132.406 108.611 133.716 108.969 135.013L109.451 134.88C109.809 136.177 110.199 137.461 110.618 138.731L110.143 138.888C110.568 140.173 111.023 141.445 111.508 142.701L111.974 142.521C112.459 143.775 112.973 145.015 113.516 146.239L113.059 146.442C113.608 147.678 114.186 148.898 114.793 150.101L115.24 149.876C115.845 151.076 116.478 152.259 117.14 153.424L116.705 153.671C117.372 154.846 118.068 156.004 118.79 157.142L119.213 156.875C119.932 158.009 120.679 159.124 121.452 160.219L121.043 160.508C121.822 161.611 122.627 162.695 123.458 163.758L123.852 163.45C124.679 164.508 125.531 165.545 126.407 166.561L126.029 166.887C126.911 167.909 127.819 168.91 128.749 169.887L129.111 169.542C130.037 170.514 130.986 171.463 131.958 172.389L131.613 172.751C132.59 173.681 133.591 174.589 134.613 175.471L134.939 175.093C135.955 175.969 136.992 176.821 138.05 177.648L137.742 178.042C138.805 178.873 139.889 179.678 140.992 180.457L141.281 180.048C142.376 180.821 143.491 181.568 144.625 182.287L144.358 182.71C145.496 183.432 146.654 184.128 147.829 184.795L148.076 184.36C149.241 185.022 150.424 185.655 151.624 186.26L151.399 186.707C152.602 187.314 153.822 187.892 155.058 188.441L155.261 187.984C156.485 188.527 157.725 189.041 158.979 189.526L158.799 189.992C160.055 190.477 161.327 190.932 162.612 191.356L162.769 190.882C164.039 191.301 165.323 191.691 166.62 192.049L166.487 192.531C167.784 192.889 169.094 193.216 170.416 193.512L170.525 193.024C171.83 193.316 173.146 193.576 174.473 193.805L174.388 194.298C175.713 194.526 177.049 194.723 178.394 194.887L178.455 194.391C179.781 194.553 181.116 194.683 182.461 194.781L182.425 195.28C183.764 195.377 185.113 195.443 186.469 195.475L186.481 194.976C187.152 194.992 187.825 195 188.5 195C189.175 195 189.848 194.992 190.519 194.976L190.531 195.475C191.887 195.443 193.236 195.377 194.575 195.28L194.539 194.781C195.884 194.683 197.219 194.553 198.545 194.391L198.605 194.887C199.951 194.723 201.287 194.526 202.612 194.298L202.527 193.805C203.854 193.576 205.17 193.316 206.475 193.024L206.584 193.512C207.906 193.216 209.216 192.889 210.513 192.531L210.38 192.049C211.677 191.691 212.961 191.301 214.231 190.882L214.388 191.357C215.673 190.932 216.944 190.477 218.201 189.992L218.021 189.526C219.275 189.041 220.515 188.527 221.739 187.984L221.941 188.441C223.178 187.892 224.398 187.314 225.601 186.707L225.376 186.26C226.576 185.655 227.759 185.022 228.924 184.36L229.171 184.795C230.346 184.128 231.504 183.432 232.642 182.71L232.374 182.287C233.509 181.568 234.624 180.821 235.719 180.048L236.007 180.457C237.111 179.678 238.195 178.873 239.258 178.042L238.95 177.648C240.008 176.821 241.045 175.969 242.061 175.093L242.387 175.471C243.409 174.589 244.41 173.681 245.387 172.751L245.042 172.389C246.014 171.463 246.963 170.514 247.889 169.542L248.251 169.887C249.181 168.91 250.089 167.909 250.971 166.887L250.593 166.561C251.469 165.545 252.321 164.508 253.148 163.45L253.542 163.758C254.373 162.695 255.178 161.611 255.957 160.508L255.548 160.219C256.321 159.124 257.068 158.009 257.787 156.875L258.21 157.142C258.932 156.004 259.627 154.846 260.295 153.671L259.86 153.424C260.521 152.259 261.155 151.076 261.76 149.876L262.207 150.101C262.814 148.898 263.392 147.678 263.941 146.442L263.484 146.239C264.027 145.015 264.541 143.775 265.026 142.521L265.492 142.701C265.977 141.445 266.432 140.173 266.856 138.888L266.382 138.731C266.801 137.461 267.191 136.177 267.549 134.88L268.031 135.013C268.389 133.716 268.716 132.406 269.012 131.084L268.524 130.975C268.816 129.67 269.076 128.354 269.305 127.027L269.798 127.112C270.026 125.787 270.223 124.451 270.387 123.106L269.891 123.045C270.053 121.719 270.183 120.384 270.281 119.039L270.78 119.075C270.877 117.736 270.943 116.387 270.975 115.031L270.476 115.019C270.492 114.348 270.5 113.675 270.5 113C270.5 112.325 270.492 111.652 270.476 110.981L270.975 110.969C270.943 109.613 270.877 108.264 270.78 106.925L270.281 106.961C270.183 105.616 270.053 104.281 269.891 102.955L270.387 102.895C270.223 101.549 270.026 100.213 269.798 98.8884L269.305 98.9734C269.076 97.6461 268.816 96.3298 268.524 95.0252L269.012 94.9161C268.716 93.5943 268.389 92.2844 268.031 90.9874L267.549 91.1205C267.191 89.8234 266.801 88.5391 266.382 87.2687L266.856 87.1119C266.432 85.8267 265.977 84.5555 265.492 83.2992L265.026 83.4792C264.541 82.2248 264.027 80.9852 263.484 79.7614L263.941 79.5585C263.392 78.3224 262.814 77.1022 262.207 75.8989L261.76 76.1241C261.155 74.9242 260.521 73.7412 259.86 72.576L260.295 72.3291C259.627 71.1537 258.932 69.9962 258.21 68.8576L257.787 69.1255C257.068 67.9914 256.321 66.8762 255.548 65.7808L255.957 65.4925C255.178 64.3887 254.373 63.3047 253.542 62.2417L253.148 62.5496C252.321 61.4918 251.469 60.4548 250.593 59.4395L250.971 59.1127C250.089 58.0906 249.181 57.0904 248.251 56.113L247.888 56.4578C246.963 55.486 246.014 54.537 245.042 53.6115L245.387 53.2494C244.41 52.3186 243.409 51.4114 242.387 50.529L242.061 50.9074C241.045 50.0309 240.008 49.1788 238.95 48.3521L239.258 47.9582C238.195 47.1274 237.111 46.3221 236.007 45.5433L235.719 45.9518C234.624 45.1789 233.509 44.4322 232.374 43.7126L232.642 43.2904C231.504 42.5679 230.346 41.8725 229.171 41.2052L228.924 41.64C227.759 40.9785 226.576 40.3448 225.376 39.7396L225.601 39.2932C224.398 38.6863 223.178 38.108 221.942 37.5592L221.739 38.0162C220.515 37.4729 219.275 36.9587 218.021 36.4745L218.201 36.008C216.945 35.5231 215.673 35.0679 214.388 34.6435L214.231 35.1183C212.961 34.6988 211.677 34.3095 210.38 33.9513L210.513 33.4693C209.216 33.1111 207.906 32.7838 206.584 32.4882L206.475 32.9761C205.17 32.6844 203.854 32.4237 202.527 32.195L202.612 31.7022C201.287 31.4739 199.951 31.2771 198.605 31.1128L198.545 31.6091C197.219 31.4472 195.884 31.3169 194.539 31.219L194.575 30.7204C193.236 30.6229 191.887 30.5573 190.531 30.5246L190.519 31.0244C189.848 31.0082 189.175 31.0001 188.5 31.0001C187.825 31.0001 187.152 31.0082 186.481 31.0244L186.469 30.5246Z" stroke="#1E293B" stroke-dasharray="4 4"/>
<path d="M165.143 95.3214C165.143 94.6721 165.13 94.0258 165.105 93.3825L164.606 93.4019C164.556 92.1143 164.456 90.8396 164.309 89.5795L164.805 89.5214C164.654 88.2305 164.453 86.9548 164.204 85.6963L163.714 85.7933C163.464 84.532 163.166 83.2882 162.821 82.0639L163.303 81.9284C162.951 80.68 162.552 79.4518 162.107 78.2457L161.638 78.4188C161.193 77.215 160.703 76.0336 160.169 74.8766L160.623 74.667C160.08 73.4914 159.492 72.3409 158.862 71.2175L158.426 71.4622C157.799 70.3454 157.129 69.2558 156.42 68.1955L156.835 67.9173C156.116 66.8428 155.355 65.7982 154.556 64.7856L154.164 65.0954C153.371 64.0915 152.54 63.1194 151.672 62.1814L152.039 61.8419C151.163 60.8938 150.249 59.9802 149.301 59.1034L148.961 59.4704C148.023 58.603 147.051 57.7718 146.047 56.9793L146.357 56.5869C145.345 55.7876 144.3 55.0271 143.226 54.3077L142.947 54.7232C141.887 54.0134 140.797 53.344 139.681 52.7172L139.925 52.2812C138.802 51.6507 137.651 51.063 136.476 50.5201L136.266 50.974C135.109 50.4398 133.928 49.9494 132.724 49.5052L132.897 49.0361C131.691 48.591 130.463 48.1917 129.214 47.8403L129.079 48.3216C127.855 47.9769 126.611 47.6788 125.35 47.4293L125.447 46.9388C124.188 46.6898 122.912 46.4887 121.621 46.3375L121.563 46.8341C120.303 46.6865 119.028 46.5868 117.741 46.537L117.76 46.0374C117.117 46.0125 116.471 46 115.821 46C115.172 46 114.526 46.0125 113.883 46.0374L113.902 46.537C112.614 46.5868 111.34 46.6865 110.08 46.8341L110.021 46.3375C108.73 46.4887 107.455 46.6898 106.196 46.9388L106.293 47.4293C105.032 47.6788 103.788 47.9769 102.564 48.3216L102.428 47.8403C101.18 48.1917 99.9518 48.591 98.7457 49.0361L98.9188 49.5052C97.715 49.9494 96.5336 50.4398 95.3766 50.974L95.167 50.5201C93.9914 51.063 92.8409 51.6507 91.7175 52.2811L91.9622 52.7172C90.8454 53.344 89.7558 54.0134 88.6955 54.7232L88.4173 54.3077C87.3428 55.0271 86.2982 55.7876 85.2856 56.5869L85.5954 56.9793C84.5915 57.7718 83.6194 58.603 82.6814 59.4704L82.3419 59.1034C81.3938 59.9802 80.4802 60.8938 79.6034 61.8419L79.9704 62.1814C79.103 63.1194 78.2718 64.0915 77.4793 65.0954L77.0869 64.7856C76.2876 65.7982 75.5271 66.8428 74.8077 67.9173L75.2232 68.1955C74.5134 69.2558 73.844 70.3454 73.2172 71.4622L72.7812 71.2175C72.1507 72.3408 71.563 73.4914 71.0201 74.667L71.474 74.8766C70.9398 76.0336 70.4494 77.215 70.0052 78.4188L69.5361 78.2457C69.091 79.4518 68.6917 80.68 68.3403 81.9284L68.8216 82.0639C68.4769 83.2882 68.1788 84.532 67.9293 85.7933L67.4388 85.6963C67.1898 86.9548 66.9887 88.2305 66.8375 89.5213L67.3341 89.5795C67.1865 90.8396 67.0868 92.1143 67.037 93.4019L66.5374 93.3825C66.5125 94.0258 66.5 94.6721 66.5 95.3214C66.5 95.9707 66.5125 96.617 66.5374 97.2603L67.037 97.241C67.0868 98.5285 67.1865 99.8032 67.3341 101.063L66.8375 101.121C66.9887 102.412 67.1898 103.688 67.4388 104.947L67.9293 104.849C68.1788 106.111 68.4769 107.355 68.8216 108.579L68.3403 108.714C68.6917 109.963 69.091 111.191 69.5361 112.397L70.0052 112.224C70.4494 113.428 70.9398 114.609 71.474 115.766L71.0201 115.976C71.563 117.151 72.1507 118.302 72.7811 119.425L73.2172 119.181C73.844 120.297 74.5134 121.387 75.2232 122.447L74.8077 122.726C75.5271 123.8 76.2876 124.845 77.0869 125.857L77.4793 125.547C78.2718 126.551 79.103 127.523 79.9704 128.461L79.6034 128.801C80.4802 129.749 81.3938 130.663 82.3419 131.539L82.6814 131.172C83.6194 132.04 84.5915 132.871 85.5954 133.664L85.2856 134.056C86.2982 134.855 87.3428 135.616 88.4173 136.335L88.6955 135.92C89.7558 136.629 90.8454 137.299 91.9622 137.926L91.7175 138.362C92.8408 138.992 93.9914 139.58 95.167 140.123L95.3766 139.669C96.5336 140.203 97.715 140.693 98.9188 141.138L98.7457 141.607C99.9518 142.052 101.18 142.451 102.428 142.803L102.564 142.321C103.788 142.666 105.032 142.964 106.293 143.214L106.196 143.704C107.455 143.953 108.73 144.154 110.021 144.305L110.08 143.809C111.34 143.956 112.614 144.056 113.902 144.106L113.883 144.605C114.526 144.63 115.172 144.643 115.821 144.643C116.471 144.643 117.117 144.63 117.76 144.605L117.741 144.106C119.028 144.056 120.303 143.956 121.563 143.809L121.621 144.305C122.912 144.154 124.188 143.953 125.447 143.704L125.349 143.214C126.611 142.964 127.855 142.666 129.079 142.321L129.214 142.803C130.463 142.451 131.691 142.052 132.897 141.607L132.724 141.138C133.928 140.693 135.109 140.203 136.266 139.669L136.476 140.123C137.651 139.58 138.802 138.992 139.925 138.362L139.681 137.926C140.797 137.299 141.887 136.629 142.947 135.92L143.226 136.335C144.3 135.616 145.345 134.855 146.357 134.056L146.047 133.664C147.051 132.871 148.023 132.04 148.961 131.172L149.301 131.539C150.249 130.663 151.163 129.749 152.039 128.801L151.672 128.461C152.54 127.523 153.371 126.551 154.164 125.547L154.556 125.857C155.355 124.845 156.116 123.8 156.835 122.726L156.42 122.447C157.129 121.387 157.799 120.297 158.426 119.181L158.862 119.425C159.492 118.302 160.08 117.151 160.623 115.976L160.169 115.766C160.703 114.609 161.193 113.428 161.638 112.224L162.107 112.397C162.552 111.191 162.951 109.963 163.303 108.714L162.821 108.579C163.166 107.355 163.464 106.111 163.714 104.85L164.204 104.947C164.453 103.688 164.654 102.412 164.805 101.121L164.309 101.063C164.456 99.8032 164.556 98.5285 164.606 97.241L165.105 97.2603C165.13 96.6171 165.143 95.9707 165.143 95.3214ZM180.614 93.3588C180.575 92.0461 180.497 90.7431 180.381 89.4511L179.883 89.4958C179.766 88.1991 179.611 86.9134 179.419 85.64L179.913 85.5654C179.718 84.2677 179.483 82.9827 179.212 81.7114L178.723 81.8159C178.451 80.5435 178.141 79.285 177.795 78.0417L178.277 77.9077C177.926 76.6455 177.538 75.3988 177.113 74.1689L176.64 74.332C176.217 73.1041 175.757 71.893 175.262 70.7001L175.724 70.5086C175.223 69.2997 174.686 68.1093 174.115 66.9387L173.666 67.1579C173.096 65.9912 172.493 64.8442 171.857 63.7183L172.292 63.4723C171.649 62.334 170.972 61.2171 170.263 60.1229L169.843 60.3948C169.138 59.3064 168.401 58.2407 167.633 57.199L168.036 56.9023C167.261 55.8506 166.455 54.8232 165.619 53.8214L165.235 54.1417C164.404 53.1465 163.545 52.1767 162.657 51.2338L163.021 50.891C162.126 49.9405 161.202 49.0171 160.252 48.122L159.909 48.486C158.966 47.5981 157.996 46.7383 157.001 45.908L157.321 45.5241C156.32 44.6883 155.292 43.8821 154.24 43.107L153.944 43.5095C152.902 42.7417 151.836 42.0046 150.748 41.2995L151.02 40.8799C149.926 40.171 148.809 39.4942 147.671 38.8508L147.425 39.2861C146.299 38.6497 145.152 38.0463 143.985 37.4772L144.204 37.0278C143.033 36.4568 141.843 35.92 140.634 35.4187L140.443 35.8805C139.25 35.3858 138.039 34.926 136.811 34.5023L136.974 34.0297C135.744 33.6053 134.497 33.2169 133.235 32.8657L133.101 33.3474C131.858 33.0015 130.599 32.692 129.327 32.4201L129.431 31.9312C128.16 31.6595 126.875 31.4252 125.577 31.2293L125.503 31.7237C124.229 31.5315 122.944 31.3766 121.647 31.2602L121.692 30.7622C120.4 30.6462 119.097 30.5682 117.784 30.5291L117.769 31.0289C117.122 31.0097 116.473 31 115.821 31C115.17 31 114.521 31.0097 113.874 31.0289L113.859 30.5291C112.546 30.5682 111.243 30.6462 109.951 30.7622L109.996 31.2602C108.699 31.3766 107.413 31.5315 106.14 31.7237L106.065 31.2293C104.768 31.4252 103.483 31.6596 102.211 31.9312L102.316 32.4201C101.043 32.692 99.785 33.0015 98.5417 33.3474L98.4077 32.8657C97.1455 33.2169 95.8988 33.6053 94.6689 34.0297L94.832 34.5023C93.6041 34.926 92.393 35.3858 91.2001 35.8805L91.0086 35.4187C89.7997 35.92 88.6093 36.4568 87.4387 37.0278L87.6579 37.4772C86.4912 38.0463 85.3442 38.6498 84.2183 39.2861L83.9723 38.8508C82.834 39.4942 81.7171 40.171 80.6229 40.8799L80.8948 41.2995C79.8064 42.0046 78.7407 42.7417 77.699 43.5095L77.4023 43.107C76.3506 43.8822 75.3232 44.6883 74.3214 45.5241L74.6417 45.908C73.6465 46.7383 72.6767 47.5981 71.7338 48.486L71.391 48.122C70.4405 49.0171 69.5171 49.9406 68.622 50.891L68.986 51.2338C68.0981 52.1768 67.2383 53.1465 66.408 54.1417L66.0241 53.8214C65.1883 54.8232 64.3821 55.8506 63.607 56.9023L64.0095 57.199C63.2417 58.2407 62.5046 59.3064 61.7995 60.3948L61.3799 60.1229C60.671 61.2171 59.9942 62.334 59.3508 63.4723L59.7861 63.7183C59.1497 64.8442 58.5463 65.9912 57.9772 67.1579L57.5278 66.9387C56.9568 68.1094 56.42 69.2997 55.9187 70.5086L56.3805 70.7001C55.8858 71.8931 55.426 73.1041 55.0023 74.332L54.5297 74.1689C54.1053 75.3989 53.7169 76.6455 53.3657 77.9077L53.8474 78.0418C53.5015 79.2851 53.192 80.5435 52.9201 81.8159L52.4312 81.7115C52.1595 82.9827 51.9252 84.2677 51.7293 85.5654L52.2237 85.64C52.0315 86.9134 51.8766 88.1991 51.7602 89.4959L51.2622 89.4512C51.1462 90.7432 51.0682 92.0461 51.0291 93.3588L51.5289 93.3737C51.5097 94.0205 51.5 94.6698 51.5 95.3214C51.5 95.973 51.5097 96.6223 51.5289 97.2692L51.0291 97.284C51.0682 98.5968 51.1462 99.8997 51.2622 101.192L51.7602 101.147C51.8766 102.444 52.0315 103.729 52.2237 105.003L51.7293 105.077C51.9252 106.375 52.1596 107.66 52.4312 108.931L52.9201 108.827C53.192 110.099 53.5015 111.358 53.8474 112.601L53.3657 112.735C53.7169 113.997 54.1053 115.244 54.5297 116.474L55.0023 116.311C55.426 117.539 55.8858 118.75 56.3805 119.943L55.9187 120.134C56.42 121.343 56.9568 122.533 57.5278 123.704L57.9772 123.485C58.5463 124.652 59.1498 125.799 59.7861 126.925L59.3508 127.171C59.9942 128.309 60.671 129.426 61.3799 130.52L61.7995 130.248C62.5046 131.336 63.2417 132.402 64.0095 133.444L63.607 133.74C64.3822 134.792 65.1883 135.82 66.0241 136.821L66.408 136.501C67.2383 137.496 68.0981 138.466 68.986 139.409L68.622 139.752C69.5171 140.702 70.4406 141.626 71.391 142.521L71.7338 142.157C72.6768 143.045 73.6465 143.905 74.6417 144.735L74.3214 145.119C75.3232 145.955 76.3506 146.761 77.4023 147.536L77.699 147.133C78.7407 147.901 79.8064 148.638 80.8948 149.343L80.6229 149.763C81.7171 150.472 82.834 151.149 83.9723 151.792L84.2183 151.357C85.3442 151.993 86.4912 152.596 87.6579 153.166L87.4387 153.615C88.6094 154.186 89.7997 154.723 91.0086 155.224L91.2001 154.762C92.3931 155.257 93.6041 155.717 94.832 156.14L94.6689 156.613C95.8989 157.038 97.1455 157.426 98.4077 157.777L98.5418 157.295C99.7851 157.641 101.044 157.951 102.316 158.223L102.211 158.712C103.483 158.983 104.768 159.218 106.065 159.413L106.14 158.919C107.413 159.111 108.699 159.266 109.996 159.383L109.951 159.881C111.243 159.997 112.546 160.075 113.859 160.114L113.874 159.614C114.521 159.633 115.17 159.643 115.821 159.643C116.473 159.643 117.122 159.633 117.769 159.614L117.784 160.114C119.097 160.075 120.4 159.997 121.692 159.881L121.647 159.383C122.944 159.266 124.229 159.111 125.503 158.919L125.577 159.413C126.875 159.218 128.16 158.983 129.431 158.712L129.327 158.223C130.599 157.951 131.858 157.641 133.101 157.295L133.235 157.777C134.497 157.426 135.744 157.038 136.974 156.613L136.811 156.14C138.039 155.717 139.25 155.257 140.443 154.762L140.634 155.224C141.843 154.723 143.033 154.186 144.204 153.615L143.985 153.166C145.152 152.596 146.299 151.993 147.425 151.357L147.671 151.792C148.809 151.149 149.926 150.472 151.02 149.763L150.748 149.343C151.836 148.638 152.902 147.901 153.944 147.133L154.24 147.536C155.292 146.761 156.32 145.955 157.321 145.119L157.001 144.735C157.996 143.904 158.966 143.045 159.909 142.157L160.252 142.521C161.202 141.626 162.126 140.702 163.021 139.752L162.657 139.409C163.545 138.466 164.405 137.496 165.235 136.501L165.619 136.821C166.455 135.82 167.261 134.792 168.036 133.74L167.633 133.444C168.401 132.402 169.138 131.336 169.843 130.248L170.263 130.52C170.972 129.426 171.649 128.309 172.292 127.171L171.857 126.925C172.493 125.799 173.096 124.652 173.666 123.485L174.115 123.704C174.686 122.533 175.223 121.343 175.724 120.134L175.262 119.943C175.757 118.75 176.217 117.539 176.64 116.311L177.113 116.474C177.538 115.244 177.926 113.997 178.277 112.735L177.795 112.601C178.141 111.358 178.451 110.099 178.723 108.827L179.212 108.931C179.483 107.66 179.718 106.375 179.913 105.077L179.419 105.003C179.611 103.729 179.766 102.444 179.883 101.147L180.381 101.192C180.497 99.8997 180.575 98.5967 180.614 97.284L180.114 97.2691C180.133 96.6223 180.143 95.973 180.143 95.3214C180.143 94.6698 180.133 94.0205 180.114 93.3736L180.614 93.3588Z" stroke="#1E293B" stroke-dasharray="4 4"/>
<g filter="url(#filter0_b_352_98)">
<mask id="path-11-inside-1_352_98" fill="white">
<path fill-rule="evenodd" clip-rule="evenodd" d="M126.17 146.076L140.928 137.204C155.172 128.641 164.643 113.079 164.643 95.3214C164.643 68.3581 142.785 46.5 115.821 46.5C88.8581 46.5 67 68.3581 67 95.3214L67 95.3894V179.5H149.764L126.17 146.076ZM180.643 195.5H62C58.1497 195.5 56.2245 195.5 54.7539 194.751C53.4602 194.092 52.4085 193.04 51.7494 191.746C51 190.276 51 188.35 51 184.5L51 95.3214C51 59.5215 80.0215 30.5 115.821 30.5C151.621 30.5 180.643 59.5215 180.643 95.3214C180.643 115.507 171.416 133.537 156.951 145.426C154.501 147.438 151.902 149.275 149.172 150.916L180.643 195.5ZM58.7903 179.46C58.7834 179.459 58.7799 179.459 58.7801 179.459C58.7802 179.459 58.7827 179.459 58.7875 179.46M67.0403 187.71C67.0415 187.722 67.0415 187.724 67.0406 187.713C67.0405 187.712 67.0404 187.711 67.0403 187.71Z"/>
</mask>
<path fill-rule="evenodd" clip-rule="evenodd" d="M126.17 146.076L140.928 137.204C155.172 128.641 164.643 113.079 164.643 95.3214C164.643 68.3581 142.785 46.5 115.821 46.5C88.8581 46.5 67 68.3581 67 95.3214L67 95.3894V179.5H149.764L126.17 146.076ZM180.643 195.5H62C58.1497 195.5 56.2245 195.5 54.7539 194.751C53.4602 194.092 52.4085 193.04 51.7494 191.746C51 190.276 51 188.35 51 184.5L51 95.3214C51 59.5215 80.0215 30.5 115.821 30.5C151.621 30.5 180.643 59.5215 180.643 95.3214C180.643 115.507 171.416 133.537 156.951 145.426C154.501 147.438 151.902 149.275 149.172 150.916L180.643 195.5ZM58.7903 179.46C58.7834 179.459 58.7799 179.459 58.7801 179.459C58.7802 179.459 58.7827 179.459 58.7875 179.46M67.0403 187.71C67.0415 187.722 67.0415 187.724 67.0406 187.713C67.0405 187.712 67.0404 187.711 67.0403 187.71Z" fill="#1E293B" fill-opacity="0.2"/>
<path fill-rule="evenodd" clip-rule="evenodd" d="M126.17 146.076L140.928 137.204C155.172 128.641 164.643 113.079 164.643 95.3214C164.643 68.3581 142.785 46.5 115.821 46.5C88.8581 46.5 67 68.3581 67 95.3214L67 95.3894V179.5H149.764L126.17 146.076ZM180.643 195.5H62C58.1497 195.5 56.2245 195.5 54.7539 194.751C53.4602 194.092 52.4085 193.04 51.7494 191.746C51 190.276 51 188.35 51 184.5L51 95.3214C51 59.5215 80.0215 30.5 115.821 30.5C151.621 30.5 180.643 59.5215 180.643 95.3214C180.643 115.507 171.416 133.537 156.951 145.426C154.501 147.438 151.902 149.275 149.172 150.916L180.643 195.5ZM58.7903 179.46C58.7834 179.459 58.7799 179.459 58.7801 179.459C58.7802 179.459 58.7827 179.459 58.7875 179.46M67.0403 187.71C67.0415 187.722 67.0415 187.724 67.0406 187.713C67.0405 187.712 67.0404 187.711 67.0403 187.71Z" stroke="#1E293B" stroke-width="2" mask="url(#path-11-inside-1_352_98)"/>
</g>
<g filter="url(#filter1_b_352_98)">
<path fill-rule="evenodd" clip-rule="evenodd" d="M183.033 46.7215C184.836 46.5748 186.659 46.5 188.5 46.5C225.227 46.5 255 76.273 255 113C255 149.727 225.227 179.5 188.5 179.5C188.17 179.5 187.842 179.498 187.513 179.493L198.398 194.912C239.295 190.023 271 155.214 271 113C271 67.4365 234.063 30.5 188.5 30.5C181.839 30.5 175.363 31.2894 169.159 32.7797C174.318 36.859 178.978 41.5418 183.033 46.7215Z" fill="#1E293B" fill-opacity="0.2"/>
<path d="M188.5 46C186.737 46 184.99 46.0681 183.261 46.2019C179.434 41.3451 175.076 36.9262 170.275 33.0325C176.136 31.7024 182.235 31 188.5 31C233.787 31 270.5 67.7126 270.5 113C270.5 154.856 239.139 189.388 198.634 194.38L188.483 180C188.489 180 188.494 180 188.5 180C225.503 180 255.5 150.003 255.5 113C255.5 75.9969 225.503 46 188.5 46Z" stroke="#1E293B"/>
</g>
<defs>
<filter id="filter0_b_352_98" x="39" y="18.5" width="153.643" height="189" filterUnits="userSpaceOnUse" color-interpolation-filters="sRGB">
<feFlood flood-opacity="0" result="BackgroundImageFix"/>
<feGaussianBlur in="BackgroundImageFix" stdDeviation="6"/>
<feComposite in2="SourceAlpha" operator="in" result="effect1_backgroundBlur_352_98"/>
<feBlend mode="normal" in="SourceGraphic" in2="effect1_backgroundBlur_352_98" result="shape"/>
</filter>
<filter id="filter1_b_352_98" x="157.159" y="18.5" width="125.841" height="188.412" filterUnits="userSpaceOnUse" color-interpolation-filters="sRGB">
<feFlood flood-opacity="0" result="BackgroundImageFix"/>
<feGaussianBlur in="BackgroundImageFix" stdDeviation="6"/>
<feComposite in2="SourceAlpha" operator="in" result="effect1_backgroundBlur_352_98"/>
<feBlend mode="normal" in="SourceGraphic" in2="effect1_backgroundBlur_352_98" result="shape"/>
</filter>
</defs>
</svg>
