<svg width="32" height="32" viewBox="0 0 32 32" fill="none" xmlns="http://www.w3.org/2000/svg">
<path fill-rule="evenodd" clip-rule="evenodd" d="M10.6856 20.7588L12.9915 19.3725C15.0134 18.157 16.3571 15.9485 16.3571 13.4286C16.3571 9.60203 13.2551 6.5 9.42857 6.5C5.60203 6.5 2.5 9.60203 2.5 13.4286V25.5H14.0323L10.6856 20.7588ZM18.8571 28H1.6C1.03995 28 0.759921 28 0.54601 27.891C0.357847 27.7951 0.204867 27.6422 0.108993 27.454C0 27.2401 0 26.9601 0 26.4V13.4286C0 8.22131 4.22132 4 9.42857 4C14.6358 4 18.8571 8.22131 18.8571 13.4286C18.8571 16.3646 17.5151 18.9873 15.411 20.7165C15.0548 21.0092 14.6767 21.2764 14.2796 21.5151L18.8571 28Z" fill="currentColor"/>
<path fill-rule="evenodd" clip-rule="evenodd" d="M19.3307 6.52321C19.5518 6.50782 19.775 6.5 20 6.5C25.2467 6.5 29.5 10.7533 29.5 16C29.5 21.2467 25.2467 25.5 20 25.5C19.9106 25.5 19.8215 25.4988 19.7327 25.4963L21.4397 27.9145C27.3883 27.2033 32 22.1402 32 16C32 9.37258 26.6274 4 20 4C19.0311 4 18.0891 4.11482 17.1868 4.33159C17.9912 4.96763 18.7122 5.70454 19.3307 6.52321Z" fill="currentColor"/>
</svg>
